SplineFontDB: 3.2
FontName: michuhu
FullName: michuhu
FamilyName: michuhu
Weight: Regular
Copyright: Copyright (c) 2020, Matthew
UComments: "2020-7-9: Created with FontForge (http://fontforge.org)"
Version: 001.000
DefaultBaseFilename: michuhu
ItalicAngle: 0
UnderlinePosition: -102
UnderlineWidth: 51
Ascent: 819
Descent: 205
InvalidEm: 0
LayerCount: 2
Layer: 0 0 "Back" 1
Layer: 1 0 "Fore" 0
XUID: [1021 208 -1550797864 13806809]
StyleMap: 0x0000
FSType: 0
OS2Version: 0
OS2_WeightWidthSlopeOnly: 0
OS2_UseTypoMetrics: 1
CreationTime: 1594294544
ModificationTime: 1597043056
OS2TypoAscent: 0
OS2TypoAOffset: 1
OS2TypoDescent: 0
OS2TypoDOffset: 1
OS2TypoLinegap: 92
OS2WinAscent: 0
OS2WinAOffset: 1
OS2WinDescent: 0
OS2WinDOffset: 1
HheadAscent: 0
HheadAOffset: 1
HheadDescent: 0
HheadDOffset: 1
OS2Vendor: 'PfEd'
MarkAttachClasses: 1
DEI: 91125
Encoding: UnicodeBmp
UnicodeInterp: none
NameList: AGL For New Fonts
DisplaySize: -72
AntiAlias: 1
FitToEm: 0
WinInfo: 57428 14 7
BeginPrivate: 0
EndPrivate
AnchorClass2: "central""" 
BeginChars: 65536 94

StartChar: uniE000
Encoding: 57344 57344 0
Width: 400
VWidth: 0
InSpiro: 1
Flags: HW
LayerCount: 2
Fore
SplineSet
400 813 m 1
 390.359917921 736.970459699 365.007399761 662.968514798 326 597 c 0
 284.623766951 527.025362906 227.90252574 466.178940517 161 420 c 1
 211.480863904 371.743267083 255.933893612 317.187276078 293 258 c 0
 342.64397788 178.728338887 378.969926646 91.1386680289 400 0 c 1
 251 0 l 1
 242.879861907 94.8848795495 210.584846232 187.60282778 158 267 c 0
 116.473562862 329.700224826 62.4369830948 384.078808262 0 426 c 1
 88.8271487604 470.915170619 163.702872586 542.965395433 212 630 c 0
 244.285218227 688.180089629 264.815774316 752.85134131 272 819 c 1
 400 813 l 1
  Spiro
    400 813 v
    326 597 o
    161 420 v
    293 258 o
    400 0 v
    251 0 v
    158 267 o
    0 426 v
    212 630 o
    272 819 v
    0 0 z
  EndSpiro
EndSplineSet
EndChar

StartChar: uniE001
Encoding: 57345 57345 1
Width: 600
VWidth: 0
InSpiro: 1
Flags: HW
LayerCount: 2
Fore
SplineSet
329.676 369.664 m 1
 305.358566451 369.18403843 281.173345994 362.771766491 259.834597139 351.100188413 c 0
 238.495848285 339.428610335 220.005896885 322.502207564 206.796 302.08 c 0
 193.343179519 281.282237944 185.427434863 256.79829688 185.047664755 232.031765833 c 0
 184.667894646 207.265234786 192.002764969 182.292261413 206.507241385 162.213779167 c 0
 221.011717801 142.13529692 242.68194828 127.254013487 266.748194203 121.39388613 c 0
 290.814440125 115.533758774 316.894310701 118.825753445 339 130 c 0
 357.701712539 139.453563926 373.479858739 154.288039502 385.032957425 171.77088348 c 0
 396.586056112 189.253727457 404.005513089 209.267832224 408.199283614 229.799179271 c 0
 416.586824666 270.861873366 412.803443247 313.365607676 408 355 c 0
 400.478450847 420.193885354 392.500124527 485.389137716 381 550 c 0
 365.836005888 635.19548923 338.413473424 718.732500506 294 793 c 1
 423 820 l 1
 439.875648911 713.350784096 462.780766758 607.77315104 483.276 501.76 c 0
 494.41569442 444.139084293 504.347047708 386.056806774 506.424341118 327.405740537 c 0
 508.501634527 268.754674301 502.252695164 209.012581156 480.204 154.624 c 0
 462.334168277 110.543623102 433.743506519 70.3238006836 395.556720111 41.9657355677 c 0
 357.369933704 13.6076704519 309.605862245 -2.20077436239 262.092 0 c 0
 221.186423194 1.89468800178 181.002541302 17.1056810769 149.128460123 42.8136371516 c 0
 117.254378945 68.5215932264 93.8985274333 104.426165284 82.50729266 143.759304325 c 0
 71.1160578866 183.092443366 71.5719129497 225.61237594 82.6736669575 265.028199088 c 0
 93.7754209652 304.444022236 115.350672665 340.74129019 144 370 c 0
 188.136452326 415.07525205 249.102323315 443.133066785 312 448 c 1
 329.676 369.664 l 1
  Spiro
    329.676 369.664 v
    206.796 302.08 o
    339 130 o
    408 355 o
    381 550 o
    294 793 v
    423 820 v
    483.276 501.76 o
    480.204 154.624 o
    262.092 0 o
    144 370 o
    312 448 v
    0 0 z
  EndSpiro
EndSplineSet
EndChar

StartChar: uniE002
Encoding: 57346 57346 2
Width: 400
VWidth: 0
InSpiro: 1
Flags: HW
LayerCount: 2
Fore
SplineSet
-116.1875 254.975585938 m 1024
  Spiro
    -116.187 254.976 {
    0 0 z
  EndSpiro
335.397322225 794.624 m 1
 314 734 l 1
 296.643515635 747.030116294 275.857335722 755.448856721 254.325244171 758.169245214 c 0
 232.793152619 760.889633707 210.566284194 757.905209842 190.514435661 749.601304102 c 0
 170.462587128 741.297398363 152.633377946 727.693731001 139.328806121 710.546724011 c 0
 126.024234297 693.399717021 117.275895747 672.750091398 114.213322225 651.264 c 0
 111.147654512 629.756200692 113.786784358 607.461416052 121.789301367 587.263805522 c 0
 129.791818376 567.066194992 143.138641615 549.013917077 160.103162512 535.442300359 c 0
 177.06768341 521.870683641 197.60945233 512.812087829 219.071088288 509.438375985 c 0
 240.532724247 506.064664141 262.863054837 508.383880431 283.173322225 516.096 c 1
 286.245322225 0 l 1
 206.373322225 0 l 1
 224 440 l 1
 172.040894833 442.867969986 121.677787073 467.955685909 88.0892196053 507.702157413 c 0
 54.5006521373 547.448628917 38.1629480082 601.290207063 44 653 c 0
 47.6067638982 684.951919327 59.4107457264 715.944419805 77.9732976212 742.200191773 c 0
 96.5358495159 768.455963741 121.81783883 789.919656089 150.73794263 803.975312982 c 0
 179.65804643 818.030969874 212.155296794 824.648959876 244.268987878 823.022694386 c 0
 276.382678963 821.396428897 308.045110283 811.529336329 335.397322225 794.624 c 1
  Spiro
    335.397 794.624 v
    314 734 v
    114.213 651.264 o
    283.173 516.096 v
    286.245 0 v
    206.373 0 v
    224 440 v
    44 653 o
    0 0 z
  EndSpiro
EndSplineSet
Validated: 33
EndChar

StartChar: uniE003
Encoding: 57347 57347 3
Width: 800
VWidth: 0
InSpiro: 1
Flags: HW
LayerCount: 2
Fore
SplineSet
385.57421875 578.559570312 m 0
 426.755859375 581.043945312 468.484375 573.266601562 506.112304688 556.349609375 c 0
 543.740234375 539.432617188 577.189453125 513.490234375 603.467773438 481.686523438 c 0
 656.025390625 418.078125 678.8984375 331.670898438 668.198242188 249.856445312 c 0
 660.015625 187.293945312 632.42578125 127.073242188 588.805664062 81.4853515625 c 0
 545.185546875 35.8974609375 485.270507812 5.7529296875 422.438476562 0 c 0
 381.588867188 -3.740234375 339.879882812 2.6484375 301.936523438 18.234375 c 0
 263.993164062 33.8203125 229.899414062 58.4931640625 202.731445312 89.2255859375 c 0
 148.39453125 150.69140625 122.811523438 235.770507812 130.598632812 317.440429688 c 0
 136.883789062 383.364257812 164.676757812 447.444335938 210.248046875 495.494140625 c 0
 255.8203125 543.543945312 319.470703125 574.572265625 385.57421875 578.559570312 c 0
  Spiro
    668.195 249.856 o
    422.435 0 o
    130.595 317.44 o
    385.571 578.56 o
    0 0 z
  EndSpiro
516 477 m 0
 494.441582955 489.625066224 469.527039577 496.269618052 444.548987194 496.774139391 c 0
 419.570934811 497.27866073 394.632626819 491.777651909 371.627951285 482.033805327 c 0
 325.618600216 462.546112164 287.463659242 427.354966914 258 387 c 0
 229.052309408 347.351730703 207.440454799 301.126485397 203.168317596 252.221445855 c 0
 201.032248994 227.768926084 203.507817035 202.791837559 211.631345992 179.629437219 c 0
 219.754874949 156.467036879 233.614050611 135.261776572 252 119 c 0
 271.275852712 101.95113277 295.365852712 90.5226637045 320.670298768 85.8421315362 c 0
 345.974744825 81.1615993678 372.318466264 83.1109918446 397.065858909 90.1671188873 c 0
 446.560644201 104.279372973 489.073474645 137.443288629 522 177 c 0
 558.481429553 220.827441969 585.334357412 274.632609567 588.433319503 331.572365501 c 0
 589.982800549 360.042243467 585.138921139 389.046968676 572.818990092 414.759886479 c 0
 560.499059045 440.472804282 540.603539615 462.591645432 516 477 c 0
  Spiro
    516 477 o
    258 387 o
    252 119 o
    522 177 o
    0 0 z
  EndSpiro
EndSplineSet
Validated: 33
EndChar

StartChar: uniE004
Encoding: 57348 57348 4
Width: 500
VWidth: 0
Flags: HW
LayerCount: 2
Fore
SplineSet
79.380859375 584 m 1
 125.380859375 571 l 1
 111.380859375 602 113.380859375 639 128.380859375 669 c 0
 143.380859375 699 172.380859375 721 205.380859375 728 c 0
 224.380859375 732 245.380859375 732 264.380859375 727 c 0
 283.380859375 722 301.380859375 712 316.380859375 700 c 0
 346.380859375 675 365.380859375 639 374.380859375 601 c 0
 383.380859375 563 382.380859375 522 376.380859375 483 c 0
 370.380859375 444 360.380859375 407 350.380859375 369 c 0
 334.380859375 309 318.380859375 248 313.380859375 186 c 0
 308.380859375 124 311.380859375 61 325.380859375 0 c 1
 371.380859375 0 l 1
 374.380859375 104 389.380859375 207 408.380859375 310 c 0
 427.380859375 412 450.380859375 516 429.380859375 618 c 0
 419.380859375 669 396.380859375 718 360.380859375 755 c 0
 324.380859375 792 273.380859375 815 221.380859375 814 c 0
 194.380859375 813 167.380859375 806 143.380859375 793 c 0
 119.380859375 780 99.380859375 761 85.380859375 738 c 0
 71.380859375 715 63.380859375 689 62.380859375 662 c 0
 61.380859375 635 67.380859375 608 79.380859375 584 c 1
EndSplineSet
Validated: 41
EndChar

StartChar: uniE005
Encoding: 57349 57349 5
Width: 300
VWidth: 0
Flags: HW
LayerCount: 2
Fore
SplineSet
94.5 812 m 29
 91.5 0 l 25
 208.5 0 l 25
 156.5 812 l 25
 94.5 812 l 29
EndSplineSet
Validated: 9
EndChar

StartChar: uniE006
Encoding: 57350 57350 6
Width: 500
VWidth: 0
Flags: HW
LayerCount: 2
Fore
SplineSet
420.125 584 m 1
 374.125 571 l 1
 388.125 602 387.125 639 372.125 669 c 0
 357.125 699 327.125 721 294.125 728 c 0
 275.125 732 255.125 732 236.125 727 c 0
 217.125 722 199.125 712 184.125 700 c 0
 154.125 675 134.125 639 125.125 601 c 0
 116.125 563 117.125 522 123.125 483 c 0
 129.125 444 140.125 407 150.125 369 c 0
 166.125 309 181.125 248 186.125 186 c 0
 191.125 124 188.125 61 174.125 0 c 1
 128.125 0 l 1
 125.125 104 110.125 207 91.125 310 c 0
 72.125 412 49.125 516 70.125 618 c 0
 80.125 669 104.125 718 140.125 755 c 0
 176.125 792 227.125 815 279.125 814 c 0
 306.125 813 332.125 806 356.125 793 c 0
 380.125 780 400.125 761 414.125 738 c 0
 428.125 715 437.125 689 438.125 662 c 0
 439.125 635 432.125 608 420.125 584 c 1
EndSplineSet
Validated: 33
EndChar

StartChar: uniE007
Encoding: 57351 57351 7
Width: 850
VWidth: 0
Flags: HW
LayerCount: 2
Fore
SplineSet
828.5 309 m 5
 755.5 358 l 5
 632.5 129 218.5 219 87.5 342 c 5
 21.5 281 l 5
 173.5 121 717.5 63 828.5 309 c 5
EndSplineSet
Validated: 41
EndChar

StartChar: uniE008
Encoding: 57352 57352 8
Width: 850
VWidth: 0
InSpiro: 1
Flags: HW
LayerCount: 2
Fore
SplineSet
28.7099609375 67.583984375 m 1
 127.014648438 21.50390625 l 1
 156.768554688 82.130859375 201.263671875 135.59765625 256.038085938 175.103515625 c 0
 326.5 225.924804688 415.955078125 252.978515625 501.797851562 239.616210938 c 0
 553.3984375 231.583984375 602.787109375 208.991210938 641.927734375 174.420898438 c 0
 681.068359375 139.849609375 709.702148438 93.5126953125 722.982421875 43.0078125 c 1
 821.286132812 98.3037109375 l 1
 766.552734375 190.924804688 675.616210938 261.3125 572.454101562 291.83984375 c 0
 460.26171875 325.040039062 335.76171875 311.06640625 231.461914062 258.047851562 c 0
 147.69140625 215.46484375 76.5947265625 148.442382812 28.7099609375 67.583984375 c 1
  Spiro
    28.7106 67.584 v
    127.014 21.504 v
    256.038 175.104 o
    501.798 239.616 o
    722.982 43.008 v
    821.286 98.304 v
    572.454 291.84 o
    231.462 258.048 o
    0 0 z
  EndSpiro
28.7099609375 95.232421875 m 1048
  Spiro
    28.7106 95.232 {
    0 0 z
  EndSpiro
EndSplineSet
Validated: 41
EndChar

StartChar: uniE009
Encoding: 57353 57353 9
Width: 400
VWidth: 0
InSpiro: 1
Flags: HW
LayerCount: 2
Fore
SplineSet
116.7109375 17.408203125 m 1
 61.482421875 115 l 1
 142.940429688 138.205078125 214.502929688 194.89453125 254.94921875 269.311523438 c 0
 285.2109375 324.991210938 298.020507812 390.323242188 289.106445312 453.064453125 c 0
 280.192382812 515.805664062 249.129882812 575.442382812 201.701171875 617.471679688 c 0
 169.576171875 645.940429688 130.291015625 666.278320312 88.482421875 676 c 1
 173.029296875 802.81640625 l 1
 222.950195312 750.092773438 263.721679688 688.66796875 292.482421875 622 c 0
 342.708984375 505.572265625 355.104492188 370.596679688 313.317382812 250.879882812 c 0
 279.01953125 152.620117188 207.989257812 67.4033203125 116.7109375 17.408203125 c 1
  Spiro
    116.71 17.408 v
    61.482 115 v
    254.949 269.312 o
    201.701 617.472 o
    88.482 676 v
    173.029 802.816 v
    292.482 622 o
    313.317 250.88 o
    0 0 z
  EndSpiro
EndSplineSet
Validated: 33
EndChar

StartChar: uniE00A
Encoding: 57354 57354 10
Width: 550
VWidth: 0
InSpiro: 1
Flags: HW
LayerCount: 2
Fore
SplineSet
341.817382812 764.927734375 m 1
 397.11328125 724.9921875 l 1
 299.131835938 637.149414062 210.229492188 535.28515625 157.497070312 414.719726562 c 0
 130.517578125 353.033203125 114.830078125 284.385742188 126.34375 218.048828125 c 0
 132.100585938 184.880859375 144.815429688 152.733398438 164.806640625 125.646484375 c 0
 184.797851562 98.560546875 212.150390625 76.74609375 243.513671875 64.51171875 c 0
 284.912109375 48.3623046875 333.04296875 49.7978515625 372.953125 69.3388671875 c 0
 412.86328125 88.8798828125 443.666992188 126.122070312 455.481445312 168.959960938 c 0
 464.732421875 202.504882812 462.51953125 239.086914062 449.375 271.305664062 c 0
 436.229492188 303.524414062 412.237304688 331.19921875 382.23046875 348.819335938 c 0
 352.223632812 366.439453125 316.377929688 373.908203125 281.829101562 369.754882812 c 0
 247.280273438 365.6015625 214.228515625 349.849609375 189.241210938 325.631835938 c 1
 179.000976562 384 l 1
 216.850585938 407.29296875 262.241210938 418.10546875 306.526367188 414.375976562 c 0
 350.811523438 410.646484375 393.755859375 392.39453125 427.170898438 363.092773438 c 0
 460.584960938 333.791015625 484.291015625 293.59375 493.741210938 250.16796875 c 0
 503.192382812 206.7421875 498.333984375 160.318359375 480.057617188 119.807617188 c 0
 454.442382812 63.03125 402.051757812 19.083984375 341.71875 3.6025390625 c 0
 281.38671875 -11.8798828125 214.810546875 1.3466796875 163.641601562 36.8642578125 c 0
 110.159179688 73.9873046875 74.298828125 133.548828125 59.8330078125 197.025390625 c 0
 45.3671875 260.501953125 50.85546875 327.451171875 68.4091796875 390.143554688 c 0
 110.831054688 541.651367188 215.4296875 671.225585938 341.817382812 764.927734375 c 1
  Spiro
    341.821 764.928 v
    397.117 724.992 v
    157.501 414.72 o
    243.517 64.512 o
    455.485 168.96 o
    189.245 325.632 v
    179.005 384 v
    480.061 119.808 o
    163.645 36.864 o
    68.4126 390.144 o
    0 0 z
  EndSpiro
EndSplineSet
Validated: 33
EndChar

StartChar: uniE00B
Encoding: 57355 57355 11
Width: 600
VWidth: 0
InSpiro: 1
Flags: HW
LayerCount: 2
Fore
SplineSet
-10.271484375 58.3681640625 m 1
 256.9921875 780.288085938 l 1
 610.271484375 30.7197265625 l 1
 487.392578125 15.3603515625 l 1
 260.064453125 642.047851562 l 1
 134.111328125 0 l 1
 -10.271484375 58.3681640625 l 1
  Spiro
    -10.282 58.368 v
    256.982 780.288 v
    610.262 30.72 v
    487.382 15.36 v
    260.054 642.048 v
    134.102 0 v
    0 0 z
  EndSpiro
EndSplineSet
Validated: 1
EndChar

StartChar: uniE00C
Encoding: 57356 57356 12
Width: 600
VWidth: 0
InSpiro: 1
Flags: HW
LayerCount: 2
Fore
SplineSet
34.271484375 801.791992188 m 1
 565.728515625 814.080078125 l 1
 554.837890625 621.727539062 534.32421875 429.920898438 504.287109375 239.616210938 c 0
 491.634765625 159.454101562 477.294921875 79.55859375 461.279296875 0 c 1
 393.6953125 18.431640625 l 1
 429.8515625 164.83203125 455.5390625 313.81640625 470.49609375 463.872070312 c 0
 479.552734375 554.729492188 484.677734375 645.979492188 485.85546875 737.280273438 c 1
 58.84765625 712.704101562 l 1
 34.271484375 801.791992188 l 1
  Spiro
    34.2772 801.792 v
    565.733 814.08 v
    504.293 239.616 o
    461.285 0 v
    393.701 18.432 v
    470.501 463.872 o
    485.861 737.28 v
    58.8532 712.704 v
    0 0 z
  EndSpiro
EndSplineSet
Validated: 1
EndChar

StartChar: uniE00D
Encoding: 57357 57357 13
Width: 800
VWidth: 0
InSpiro: 1
Flags: HW
LayerCount: 2
Fore
SplineSet
83.0390625 648.192382812 m 1
 115.602539062 664.627929688 152.060546875 673.1875 188.537109375 673.30078125 c 0
 225.014648438 673.413085938 261.223632812 665.021484375 295.006835938 651.263671875 c 0
 351.405273438 628.296875 400.536132812 589.93359375 457.064453125 567.290039062 c 0
 485.329101562 555.967773438 515.869140625 548.997070312 546.204101562 551.6171875 c 0
 576.5390625 554.23828125 606.479492188 567.133789062 626.783203125 589.82421875 c 0
 640.815429688 605.506835938 649.965820312 625.620117188 651.926757812 646.573242188 c 0
 653.888671875 667.526367188 648.572265625 689.1171875 636.952148438 706.663085938 c 0
 625.33203125 724.208984375 607.538085938 737.524414062 587.502929688 743.96484375 c 0
 567.46875 750.404296875 545.403320312 749.984375 525.407226562 743.423828125 c 0
 493.310546875 732.89453125 467.569335938 706.958007812 453.111328125 676.428710938 c 0
 438.653320312 645.899414062 434.584960938 611.271484375 436.319335938 577.536132812 c 0
 441.413085938 478.439453125 486.3125 385.447265625 499.27734375 287.0703125 c 0
 512.2421875 188.692382812 495.978515625 85.44921875 445.53515625 0 c 1
 384.094726562 0 l 1
 409.026367188 50.3017578125 424.219726562 105.338867188 429.225585938 161.255859375 c 0
 434.23046875 217.172851562 428.84765625 273.643554688 417.88671875 328.704101562 c 0
 404.380859375 396.549804688 382.357421875 462.70703125 373.201171875 531.275390625 c 0
 368.623046875 565.55859375 367.483398438 600.4921875 372.67578125 634.688476562 c 0
 377.868164062 668.884765625 389.5625 702.3046875 408.670898438 731.135742188 c 0
 426.40625 757.89453125 450.512695312 780.52734375 478.786132812 795.733398438 c 0
 507.05859375 810.939453125 539.418945312 818.633789062 571.487304688 817.15234375 c 0
 602.66015625 815.711914062 633.482421875 805.537109375 658.96875 787.530273438 c 0
 684.455078125 769.522460938 704.416015625 743.66015625 714.80859375 714.235351562 c 0
 725.201171875 684.810546875 725.860351562 652.03515625 716.61328125 622.23046875 c 0
 707.366210938 592.42578125 688.342773438 565.892578125 663.646484375 546.81640625 c 0
 637.680664062 526.758789062 605.836914062 514.982421875 573.3046875 510.716796875 c 0
 540.772460938 506.452148438 507.62109375 509.411132812 475.458984375 515.904296875 c 0
 411.135742188 528.891601562 349.991210938 554.737304688 285.791015625 568.3203125 c 0
 216.883789062 582.8984375 144.286132812 582.649414062 76.89453125 562.17578125 c 1
 83.0390625 648.192382812 l 1
  Spiro
    83.0526 648.192 v
    295.021 651.264 o
    626.797 589.824 o
    525.421 743.424 o
    436.333 577.536 o
    445.549 0 v
    384.109 0 v
    417.901 328.704 o
    408.685 731.136 o
    571.501 817.152 o
    663.661 546.816 o
    285.805 568.32 o
    76.9086 562.176 v
    0 0 z
  EndSpiro
EndSplineSet
Validated: 37
EndChar

StartChar: uniE00E
Encoding: 57358 57358 14
Width: 400
VWidth: 0
InSpiro: 1
Flags: HW
LayerCount: 2
Fore
SplineSet
143 731 m 1
 400 518 l 1
 344 428 l 1
 86 641 l 1
 143 731 l 1
  Spiro
    143 731 v
    400 518 v
    344 428 v
    86 641 v
    0 0 z
  EndSpiro
400 813 m 1
 390.359917921 736.970459699 365.007399761 662.968514798 326 597 c 0
 284.623766951 527.025362906 227.90252574 466.178940517 161 420 c 1
 211.480863904 371.743267083 255.933893612 317.187276078 293 258 c 0
 342.64397788 178.728338887 378.969926646 91.1386680289 400 0 c 1
 251 0 l 1
 242.879861907 94.8848795495 210.584846232 187.60282778 158 267 c 0
 116.473562862 329.700224826 62.4369830948 384.078808262 0 426 c 1
 88.8271487604 470.915170619 163.702872586 542.965395433 212 630 c 0
 244.285218227 688.180089629 264.815774316 752.85134131 272 819 c 1
 400 813 l 1
  Spiro
    400 813 v
    326 597 o
    161 420 v
    293 258 o
    400 0 v
    251 0 v
    158 267 o
    0 426 v
    212 630 o
    272 819 v
    0 0 z
  EndSpiro
EndSplineSet
EndChar

StartChar: uniE00F
Encoding: 57359 57359 15
Width: 600
VWidth: 0
InSpiro: 1
Flags: HW
LayerCount: 2
Fore
SplineSet
329.676 369.664 m 1
 305.255925682 369.777198645 280.827356895 363.609494094 259.406696915 351.883106344 c 0
 237.986036935 340.156718594 219.588968424 322.881269253 206.796 302.08 c 0
 194.096260052 281.43031954 186.976325361 257.276901226 187.141939757 233.035092924 c 0
 187.307554153 208.793284623 194.893503647 184.542559554 209.190062601 164.964482531 c 0
 223.486621555 145.386405508 244.479084838 130.721004212 267.88428326 124.405199857 c 0
 291.289481683 118.089395502 316.81121322 120.235245058 339 130 c 0
 358.491482039 138.577735567 375.30928737 152.819689876 387.789714113 170.074670833 c 0
 400.270140856 187.32965179 408.483873613 207.471380249 413.001136323 228.28218891 c 0
 422.035661743 269.903806232 416.870132263 313.343038616 408 355 c 0
 393.932814488 421.063975856 372.557636094 485.476869468 347 548 c 0
 314.290689679 628.018686833 270.494011207 703.71799683 215 770 c 1
 329 827 l 1
 600 653 l 1
 600 518 l 1
 398 656 l 1
 433.831719873 597.944534945 462.466600907 535.366623683 482 470 c 0
 497.346644124 418.643945354 507.069767882 365.412601275 508.039328957 311.821335326 c 0
 509.008890031 258.230069378 500.993229225 204.028167667 480.204 154.624 c 0
 461.80556944 110.901400266 433.037088681 71.0807905947 394.9828581 42.7604179027 c 0
 356.928627518 14.4400452106 309.496950787 -1.71423901371 262.092 0 c 0
 221.014388916 1.48543226689 180.516474884 16.4078988746 148.387813746 42.046264167 c 0
 116.259152608 67.6846294594 92.7336767777 103.719660569 81.3511272363 143.216675739 c 0
 69.9685776949 182.713690909 70.6006506922 225.412496331 81.9358675995 264.923121473 c 0
 93.2710845068 304.433746614 115.122795513 340.747928238 144 370 c 0
 188.297109349 414.872148968 249.156183201 442.862068527 312 448 c 1
 329.676 369.664 l 1
  Spiro
    329.676 369.664 v
    206.796 302.08 o
    339 130 o
    408 355 o
    347 548 o
    215 770 v
    329 827 v
    600 653 v
    600 518 v
    398 656 v
    482 470 o
    480.204 154.624 o
    262.092 0 o
    144 370 o
    312 448 v
    0 0 z
  EndSpiro
EndSplineSet
EndChar

StartChar: uniE010
Encoding: 57360 57360 16
Width: 400
VWidth: 0
InSpiro: 1
Flags: HW
LayerCount: 2
Fore
SplineSet
119.338216513 394.24 m 1
 368.170216513 179.2 l 1
 329 155 l 1
 89 338 l 1
 119.338216513 394.24 l 1
  Spiro
    119.338 394.24 v
    368.17 179.2 v
    329 155 v
    89 338 v
    0 0 z
  EndSpiro
302.634216513 794.624 m 1
 283.178216513 735.232 l 1
 265.668626326 748.544460741 244.627416423 757.167384234 222.811214082 759.971073747 c 0
 200.995011742 762.774763259 178.457212776 759.752356674 158.150513905 751.299822119 c 0
 137.843815034 742.847287563 119.817917515 728.98531287 106.434409919 711.529967445 c 0
 93.0509023234 694.07462202 84.3425411897 673.068628349 81.4502165127 651.264 c 0
 78.6037361961 629.804982657 81.3933457171 607.62343203 89.4646318174 587.537461398 c 0
 97.5359179176 567.451490766 110.87034131 549.507236468 127.773795198 535.984473357 c 0
 144.677249087 522.461710246 165.110907196 513.391499344 186.478721834 509.926189385 c 0
 207.846536472 506.460879425 230.099426979 508.60843003 250.410216513 516.096 c 1
 253.482216513 0 l 1
 173.610216513 0 l 1
 191 440 l 1
 139.965620961 444.107588449 91.0165724981 469.782548047 58.6255889139 509.433579676 c 0
 26.2346053296 549.084611305 10.8424086633 602.172210399 17 653 c 0
 24.5673153316 715.464345307 65.2215119026 772.952257758 121.59368354 800.902874226 c 0
 177.965855177 828.853490694 248.333942099 826.412974418 302.634216513 794.624 c 1
  Spiro
    302.634 794.624 v
    283.178 735.232 v
    81.4502 651.264 o
    250.41 516.096 v
    253.482 0 v
    173.61 0 v
    191 440 v
    17 653 o
    0 0 z
  EndSpiro
EndSplineSet
Validated: 37
EndChar

StartChar: uniE011
Encoding: 57361 57361 17
Width: 800
VWidth: 0
InSpiro: 1
Flags: HW
LayerCount: 2
Fore
SplineSet
768.945903152 86.016 m 1
 698.549408075 142.40263158 631.418028281 202.865201108 568 267 c 0
 520.530359112 315.006157781 475.140374557 365.068640745 432 417 c 1
 383.921903152 538.624 l 1
 774 185 l 1
 768.945903152 86.016 l 1
  Spiro
    768.946 86.016 v
    568 267 o
    432 417 v
    383.922 538.624 v
    774 185 v
    0 0 z
  EndSpiro
500.657903152 260.096 m 0
 494.035472195 194.151673109 469.340802265 129.096985613 425.322289158 79.5502264381 c 0
 403.313032604 54.7768468505 376.497941826 34.1474265243 346.43897311 20.1980139932 c 0
 316.380004394 6.24860146222 283.126075628 -0.889282703975 250 0 c 0
 216.13782312 0.909043635503 182.591938997 10.212368607 152.860581807 26.4456610345 c 0
 123.129224617 42.678953462 97.2615208538 65.6943930622 76.7741139744 92.6710411634 c 0
 35.7993002157 146.624337366 16.391123325 215.252376011 16 283 c 0
 15.5736792478 356.844274103 37.5775942386 431.937195242 83.95387745 489.403697856 c 0
 107.142019056 518.136949163 136.444676823 542.102785057 169.825072933 557.883748189 c 0
 203.205469042 573.66471132 240.587917721 581.06049419 277.425903152 578.56 c 0
 313.516376586 576.110245539 348.841394725 564.191876271 379.385564211 544.812059964 c 0
 409.929733696 525.432243657 435.652999145 498.781020427 455.082454091 468.268402543 c 0
 493.941363982 407.243166774 507.886962488 332.080963566 500.657903152 260.096 c 0
  Spiro
    500.658 260.096 o
    250 0 o
    16 283 o
    277.426 578.56 o
    0 0 z
  EndSpiro
382 455 m 0
 349.112238118 475.317273808 308.667538448 482.101348711 270.444022922 476.325592703 c 0
 232.220507396 470.549836695 196.23986467 453.082090469 166 429 c 0
 116.798207291 389.81721806 80.9053517166 332.215941497 73.9701842788 269.701861012 c 0
 70.50260056 238.444820769 74.6553780667 206.182174159 87.332670554 177.401747534 c 0
 100.009963041 148.621320908 121.305694508 123.626507627 148 107 c 0
 168.47543795 94.2469045752 191.935835052 86.4183851606 215.924062668 83.878712351 c 0
 239.912290285 81.3390395413 264.362265564 84.0238523405 287.466284893 90.9584967428 c 0
 333.674323552 104.827785548 374.148727473 135.099583944 404 173 c 0
 436.985635983 214.879934147 457.916144448 267.486629469 456.297761511 320.772292663 c 0
 455.488570042 347.41512426 448.865518912 373.97754571 436.169987822 397.415095853 c 0
 423.474456733 420.852645996 404.676811679 440.990807359 382 455 c 0
  Spiro
    382 455 o
    166 429 o
    148 107 o
    404 173 o
    0 0 z
  EndSpiro
EndSplineSet
Validated: 37
EndChar

StartChar: uniE012
Encoding: 57362 57362 18
Width: 500
VWidth: 0
InSpiro: 1
Flags: HW
VStem: 2.72711 65.8555<584.803 697.684> 254.102 57.959<2.84904 223.55>
LayerCount: 2
Fore
SplineSet
159.477539062 495.616210938 m 1
 494.326171875 252.927734375 l 1
 497.397460938 317.440429688 l 1
 187.125976562 560.127929688 l 1
 159.477539062 495.616210938 l 1
  Spiro
    159.488 495.616 v
    494.336 252.928 v
    497.408 317.44 v
    187.136 560.128 v
    0 0 z
  EndSpiro
20.2138671875 583.6796875 m 1
 66.2939453125 571.391601562 l 1
 52.29296875 601.953125 53.1943359375 638.913085938 68.5751953125 668.803710938 c 0
 83.955078125 698.694335938 113.345703125 720.79296875 146.166015625 728.064453125 c 0
 165.334960938 732.310546875 185.509765625 731.725585938 204.501953125 726.748046875 c 0
 223.495117188 721.770507812 241.278320312 712.448242188 256.513671875 700.063476562 c 0
 286.984375 675.293945312 306.580078125 638.77734375 315.353515625 600.501953125 c 0
 324.127929688 562.2265625 322.77734375 522.227539062 316.860351562 483.407226562 c 0
 310.944335938 444.586914062 300.639648438 406.58984375 290.549804688 368.639648438 c 0
 274.549804688 308.458984375 259.573242188 247.708007812 254.094726562 185.677734375 c 0
 248.616210938 123.6484375 252.275390625 60.74609375 265.973632812 0 c 1
 312.053710938 0 l 1
 314.55859375 104.249023438 329.756835938 207.768554688 348.91796875 310.272460938 c 0
 367.961914062 412.1484375 390.96484375 516.907226562 370.115234375 618.430664062 c 0
 359.690429688 669.19140625 337.227539062 718.321289062 300.76171875 755.140625 c 0
 264.295898438 791.959960938 213.333007812 815.247070312 161.525390625 814.080078125 c 0
 134.575195312 813.47265625 107.749023438 806.389648438 84.1943359375 793.280273438 c 0
 60.638671875 780.171875 40.4326171875 761.0546875 26.2041015625 738.157226562 c 0
 11.9765625 715.260742188 3.775390625 688.645507812 2.7197265625 661.708984375 c 0
 1.6640625 634.771484375 7.755859375 607.5859375 20.2138671875 583.6796875 c 1
  Spiro
    20.2242 583.68 v
    66.3044 571.392 v
    146.176 728.064 o
    290.56 368.64 o
    265.984 0 v
    312.064 0 v
    348.928 310.272 o
    161.536 814.08 o
    0 0 z
  EndSpiro
EndSplineSet
Validated: 37
EndChar

StartChar: uniE013
Encoding: 57363 57363 19
Width: 400
VWidth: 0
Flags: HW
LayerCount: 2
Fore
SplineSet
-32 616 m 1
 410 318 l 1
 432 368 l 1
 -10 693 l 5
 -32 616 l 1
137 812 m 25
 134 0 l 25
 251 0 l 25
 199 812 l 25
 137 812 l 25
EndSplineSet
Validated: 5
EndChar

StartChar: uniE014
Encoding: 57364 57364 20
Width: 500
VWidth: 0
Flags: HW
LayerCount: 2
Fore
SplineSet
9.953125 671 m 1
 325.953125 425 l 1
 322.953125 373 l 5
 -5.046875 618 l 1
 9.953125 671 l 1
486.953125 584 m 1
 440.953125 571 l 1
 454.953125 602 453.953125 639 438.953125 669 c 0
 423.953125 699 393.953125 721 360.953125 728 c 0
 341.953125 732 321.953125 732 302.953125 727 c 0
 283.953125 722 265.953125 712 250.953125 700 c 0
 220.953125 675 200.953125 639 191.953125 601 c 0
 182.953125 563 183.953125 522 189.953125 483 c 0
 195.953125 444 206.953125 407 216.953125 369 c 0
 232.953125 309 247.953125 248 252.953125 186 c 0
 257.953125 124 254.953125 61 240.953125 0 c 1
 194.953125 0 l 1
 191.953125 104 176.953125 207 157.953125 310 c 0
 138.953125 412 115.953125 516 136.953125 618 c 0
 146.953125 669 170.953125 718 206.953125 755 c 0
 242.953125 792 293.953125 815 345.953125 814 c 0
 372.953125 813 398.953125 806 422.953125 793 c 0
 446.953125 780 466.953125 761 480.953125 738 c 0
 494.953125 715 503.953125 689 504.953125 662 c 0
 505.953125 635 498.953125 608 486.953125 584 c 1
EndSplineSet
Validated: 37
EndChar

StartChar: uniE015
Encoding: 57365 57365 21
Width: 850
VWidth: 0
Flags: HW
LayerCount: 2
Fore
SplineSet
493.5 305 m 29
 708.5 50 l 25
 788.5 90 l 25
 536.5 373 l 25
 493.5 305 l 29
828.5 309 m 1
 755.5 358 l 1
 632.5 129 218.5 219 87.5 342 c 1
 21.5 281 l 1
 173.5 121 717.5 63 828.5 309 c 1
EndSplineSet
Validated: 37
EndChar

StartChar: uniE016
Encoding: 57366 57366 22
Width: 850
VWidth: 0
Flags: HW
LayerCount: 2
Fore
SplineSet
50.5 310 m 5
 275.5 24 l 1
 316.5 58 l 1
 83.5 321 l 1
 50.5 310 l 5
28.5 68 m 1
 127.5 22 l 1
 157.5 83 201.5 135 256.5 175 c 0
 326.5 226 415.5 253 501.5 240 c 0
 553.5 232 603.5 209 642.5 174 c 0
 681.5 139 710.5 94 723.5 43 c 1
 821.5 98 l 1
 766.5 191 675.5 261 572.5 292 c 0
 460.5 325 335.5 311 231.5 258 c 0
 147.5 215 76.5 149 28.5 68 c 1
28.5 95 m 1048
EndSplineSet
Validated: 37
EndChar

StartChar: uniE017
Encoding: 57367 57367 23
Width: 400
VWidth: 0
Flags: HW
LayerCount: 2
Fore
SplineSet
87 306 m 29
 363 97 l 25
 302 52 l 25
 37 306 l 25
 87 306 l 29
93 17 m 1
 71 70 l 1
 148 112 206 185 231 269 c 0
 248 327 250 390 240 449 c 0
 230 508 208 565 178 617 c 0
 153 660 123 701 88 737 c 1
 149 803 l 1
 186 745 218 684 245 621 c 0
 269 563 289 502 298 439 c 0
 307 376 306 312 289 251 c 0
 261 150 189 60 93 17 c 1
EndSplineSet
Validated: 37
EndChar

StartChar: uniE018
Encoding: 57368 57368 24
Width: 550
VWidth: 0
Flags: HW
LayerCount: 2
Fore
SplineSet
317.846679688 650 m 1
 84.8466796875 758 l 1
 201.846679688 822 l 1
 428.846679688 659 l 1
 330.846679688 579 210.846679688 486 157.846679688 376 c 0
 130.846679688 320 114.846679688 257 126.846679688 197 c 0
 132.846679688 167 144.846679688 138 164.846679688 113 c 0
 184.846679688 88 212.846679688 68 243.846679688 57 c 0
 284.846679688 42 332.846679688 43 372.846679688 61 c 0
 412.846679688 79 443.846679688 113 455.846679688 152 c 0
 464.846679688 183 462.846679688 216 449.846679688 245 c 0
 436.846679688 274 411.846679688 300 381.846679688 316 c 0
 351.846679688 332 316.846679688 339 281.846679688 335 c 0
 246.846679688 331 213.846679688 317 188.846679688 295 c 1
 178.846679688 348 l 1
 216.846679688 369 262.846679688 378 306.846679688 375 c 0
 350.846679688 372 393.846679688 356 426.846679688 329 c 0
 459.846679688 302 484.846679688 266 493.846679688 226 c 0
 502.846679688 186 497.846679688 144 479.846679688 107 c 0
 453.846679688 55 401.846679688 16 341.846679688 2 c 0
 281.846679688 -12 214.846679688 0 163.846679688 32 c 0
 110.846679688 66 73.8466796875 120 59.8466796875 178 c 0
 45.8466796875 236 50.8466796875 296 68.8466796875 353 c 0
 110.846679688 491 191.846679688 565 317.846679688 650 c 1
EndSplineSet
Validated: 33
EndChar

StartChar: uniE019
Encoding: 57369 57369 25
Width: 600
VWidth: 0
Flags: HW
LayerCount: 2
Fore
SplineSet
17 481 m 29
 604 137 l 25
 530 20 l 25
 -44 435 l 25
 17 481 l 29
23 58 m 1
 291 780 l 1
 644 31 l 1
 521 15 l 1
 294 642 l 1
 168 0 l 1
 23 58 l 1
EndSplineSet
Validated: 5
EndChar

StartChar: uniE01A
Encoding: 57370 57370 26
Width: 600
VWidth: 0
Flags: HW
LayerCount: 2
Fore
SplineSet
288.5 537 m 1
 614.5 207 l 5
 559.5 164 l 1
 291.5 446 l 1
 288.5 537 l 1
-14.5 802 m 1
 517.5 814 l 1
 506.5 622 485.5 430 455.5 240 c 0
 442.5 160 428.5 80 412.5 0 c 1
 345.5 18 l 1
 381.5 164 406.5 314 421.5 464 c 0
 430.5 555 436.5 646 437.5 737 c 1
 10.5 713 l 1
 -14.5 802 l 1
EndSplineSet
Validated: 5
EndChar

StartChar: uniE01B
Encoding: 57371 57371 27
Width: 800
VWidth: 0
InSpiro: 1
Flags: HW
LayerCount: 2
Fore
SplineSet
292.421875 465 m 1
 661.421875 182 l 1
 618.421875 139 l 1
 274.421875 403 l 1
 292.421875 465 l 1
  Spiro
    292.422 465 v
    661.422 182 v
    618.422 139 v
    274.422 403 v
    0 0 z
  EndSpiro
82.421875 648 m 1
 279.506835938 666 346.927734375 611.181640625 456.421875 567 c 0
 612.543945312 505.666992188 731.446289062 700.79296875 587.421875 744 c 0
 486.021484375 774.419921875 430.819335938 673.24609375 436.421875 578 c 0
 441.421875 479 486.421875 385 499.421875 287 c 0
 512.421875 189 495.421875 85 445.421875 0 c 1
 383.421875 0 l 1
 430.908203125 94.97265625 442.174804688 205.234375 417.421875 329 c 0
 381.984375 501.126953125 321.416992188 711.889648438 478.421875 796 c 0
 641.876953125 883.564453125 819.178710938 665.375 663.421875 547 c 0
 500.3125 421.53125 289.586914062 625.630859375 76.421875 562 c 1
 82.421875 648 l 1
  Spiro
    82.4224 648 v
    116.535 661.581 o
    152.31 670.08 o
    188.422 673 o
    224.312 670.413 o
    259.865 662.916 o
    294.422 651 o
    348.591 624.141 o
    401.586 593.859 o
    456.422 567 o
    485.503 557.563 o
    516.008 552.108 o
    546.422 552 o
    576.023 558.065 o
    603.485 570.608 o
    626.422 590 o
    638.671 607.204 o
    647.169 626.464 o
    651.422 647 o
    651.091 667.868 o
    646.081 688.131 o
    636.422 707 o
    622.845 723.245 o
    606.33 735.751 o
    587.422 744 o
    566.924 747.961 o
    545.92 747.701 o
    525.422 743 o
    495.413 727.649 o
    470.437 704.678 o
    452.422 676 o
    441.615 644.403 o
    436.568 611.596 o
    436.422 578 o
    452.065 480.43 o
    478.448 383.904 o
    499.422 287 o
    502.318 188.025 o
    484.505 90.3125 o
    445.422 0 v
    383.422 0 v
    405.329 51.4656 o
    420.842 105.536 o
    429.422 161 o
    430.979 217.166 o
    426.526 273.5 o
    417.422 329 o
    401.809 396.192 o
    385.703 463.141 o
    373.422 531 o
    369.832 565.484 o
    369.349 600.516 o
    372.422 635 o
    379.746 668.523 o
    391.77 700.809 o
    408.422 731 o
    428.326 756.495 o
    451.855 778.501 o
    478.422 796 o
    507.836 808.324 o
    539.343 815.338 o
    571.422 817 o
    602.169 813.044 o
    631.673 803.284 o
    658.422 788 o
    681.808 767.282 o
    701.031 742.047 o
    714.422 714 o
    721.381 683.957 o
    722.123 652.71 o
    716.422 622 o
    704.252 593.471 o
    686.253 568.199 o
    663.422 547 o
    635.895 529.681 o
    605.613 517.657 o
    573.422 511 o
    540.492 509.185 o
    507.686 511.152 o
    475.422 516 o
    412.004 532.13 o
    348.84 551.204 o
    285.422 568 o
    215.53 577.552 o
    144.982 575.77 o
    76.4224 562 v
    0 0 z
  EndSpiro
EndSplineSet
Validated: 37
EndChar

StartChar: uniE01C
Encoding: 57372 57372 28
Width: 400
VWidth: 0
InSpiro: 1
Flags: HW
LayerCount: 2
Fore
SplineSet
27 637 m 1
 400 637 l 1
 369 541 l 1
 0 544 l 1
 27 637 l 1
  Spiro
    27 637 v
    400 637 v
    369 541 v
    0 544 v
    0 0 z
  EndSpiro
400 820 m 1
 391.442849104 741.557884911 366.036662762 664.995999044 326 597 c 0
 284.747751291 526.939518676 227.996848814 466.061277836 161 420 c 1
 211.480863904 371.743267083 255.933893612 317.187276078 293 258 c 0
 342.64397788 178.728338887 378.969926646 91.1386680289 400 0 c 1
 251 0 l 1
 242.879861907 94.8848795495 210.584846232 187.60282778 158 267 c 0
 116.473562862 329.700224826 62.4369830948 384.078808262 0 426 c 1
 88.8271487604 470.915170619 163.702872586 542.965395433 212 630 c 0
 244.285218227 688.180089629 264.815774316 752.85134131 272 819 c 1
 400 820 l 1
  Spiro
    400 820 v
    326 597 o
    161 420 v
    293 258 o
    400 0 v
    251 0 v
    158 267 o
    0 426 v
    212 630 o
    272 819 v
    0 0 z
  EndSpiro
EndSplineSet
EndChar

StartChar: uniE01D
Encoding: 57373 57373 29
Width: 600
VWidth: 0
InSpiro: 1
Flags: HW
LayerCount: 2
Fore
SplineSet
240 610 m 1
 546 625 l 1
 564 520 l 1
 243 520 l 1
 240 610 l 1
  Spiro
    240 610 v
    546 625 v
    564 520 v
    243 520 v
    0 0 z
  EndSpiro
329.676 369.664 m 1
 305.358566451 369.18403843 281.173345994 362.771766491 259.834597139 351.100188413 c 0
 238.495848285 339.428610335 220.005896885 322.502207564 206.796 302.08 c 0
 193.343179519 281.282237944 185.427434863 256.79829688 185.047664755 232.031765833 c 0
 184.667894646 207.265234786 192.002764969 182.292261413 206.507241385 162.213779167 c 0
 221.011717801 142.13529692 242.68194828 127.254013487 266.748194203 121.39388613 c 0
 290.814440125 115.533758774 316.894310701 118.825753445 339 130 c 0
 357.701712539 139.453563926 373.479858739 154.288039502 385.032957425 171.77088348 c 0
 396.586056112 189.253727457 404.005513089 209.267832224 408.199283614 229.799179271 c 0
 416.586824666 270.861873366 412.803443247 313.365607676 408 355 c 0
 400.478450847 420.193885354 392.500124527 485.389137716 381 550 c 0
 365.836005888 635.19548923 338.413473424 718.732500506 294 793 c 1
 423 820 l 1
 439.875648911 713.350784096 462.780766758 607.77315104 483.276 501.76 c 0
 494.41569442 444.139084293 504.347047708 386.056806774 506.424341118 327.405740537 c 0
 508.501634527 268.754674301 502.252695164 209.012581156 480.204 154.624 c 0
 462.334168277 110.543623102 433.743506519 70.3238006836 395.556720111 41.9657355677 c 0
 357.369933704 13.6076704519 309.605862245 -2.20077436239 262.092 0 c 0
 221.186423194 1.89468800178 181.002541302 17.1056810769 149.128460123 42.8136371516 c 0
 117.254378945 68.5215932264 93.8985274333 104.426165284 82.50729266 143.759304325 c 0
 71.1160578866 183.092443366 71.5719129497 225.61237594 82.6736669575 265.028199088 c 0
 93.7754209652 304.444022236 115.350672665 340.74129019 144 370 c 0
 188.136452326 415.07525205 249.102323315 443.133066785 312 448 c 1
 329.676 369.664 l 1
  Spiro
    329.676 369.664 v
    206.796 302.08 o
    339 130 o
    408 355 o
    381 550 o
    294 793 v
    423 820 v
    483.276 501.76 o
    480.204 154.624 o
    262.092 0 o
    144 370 o
    312 448 v
    0 0 z
  EndSpiro
EndSplineSet
EndChar

StartChar: uniE01E
Encoding: 57374 57374 30
Width: 400
VWidth: 0
InSpiro: 1
Flags: HW
LayerCount: 2
Fore
SplineSet
92 299 m 1
 341 308 l 1
 347 230 l 1
 98 212 l 1
 92 299 l 1
  Spiro
    92 299 v
    341 308 v
    347 230 v
    98 212 v
    0 0 z
  EndSpiro
316.965499837 794.624 m 1
 301.605499837 741.376 l 1
 283.445037757 755.055482365 261.606802643 763.803751626 239.024691247 766.445505904 c 0
 216.442579851 769.087260182 193.174814222 765.615688407 172.347343945 756.497185097 c 0
 151.519873668 747.378681787 133.18639691 732.63675661 119.809957393 714.251939869 c 0
 106.433517877 695.867123127 98.0486032405 673.886815247 95.7816998372 651.264 c 0
 91.5149203996 608.683198905 110.102343673 564.484876011 143.518860847 537.751630628 c 0
 176.93537802 511.018385245 224.135849385 502.586330128 264.741499837 516.096 c 1
 267.813499837 0 l 1
 187.941499837 0 l 1
 203 437 l 1
 151.002944136 441.470166255 101.286275745 468.153571644 68.8208657296 509.015208388 c 0
 36.355455714 549.876845132 21.6008458614 604.338324428 29 656 c 0
 37.9109455694 718.217162992 79.3856150574 774.838534022 136.017420709 802.10057559 c 0
 192.64922636 829.362617157 262.775769559 826.46506553 316.965499837 794.624 c 1
  Spiro
    316.965 794.624 v
    301.605 741.376 v
    95.7817 651.264 o
    264.741 516.096 v
    267.813 0 v
    187.941 0 v
    203 437 v
    29 656 o
    0 0 z
  EndSpiro
EndSplineSet
Validated: 37
EndChar

StartChar: uniE01F
Encoding: 57375 57375 31
Width: 800
VWidth: 0
InSpiro: 1
Flags: HW
LayerCount: 2
Fore
SplineSet
764.502929688 454 m 1
 430.502929688 450 l 1
 308.502929688 580 l 1
 746.502929688 552 l 1
 764.502929688 454 l 1
  Spiro
    764.503 454 v
    430.503 450 v
    308.503 580 v
    746.503 552 v
    0 0 z
  EndSpiro
520.161132812 260.095703125 m 0
 513.538085938 194.151367188 488.84375 129.096679688 444.825195312 79.5498046875 c 0
 422.81640625 54.7763671875 396.000976562 34.1474609375 365.942382812 20.1982421875 c 0
 335.8828125 6.2490234375 302.62890625 -0.8896484375 269.502929688 0 c 0
 235.640625 0.9091796875 202.094726562 10.2119140625 172.36328125 26.4453125 c 0
 142.631835938 42.6787109375 116.764648438 65.6943359375 96.27734375 92.6708984375 c 0
 55.302734375 146.624023438 35.89453125 215.251953125 35.5029296875 283 c 0
 35.0771484375 356.844726562 57.0810546875 431.9375 103.45703125 489.403320312 c 0
 126.645507812 518.13671875 155.947265625 542.102539062 189.328125 557.883789062 c 0
 222.708984375 573.665039062 260.090820312 581.060546875 296.928710938 578.559570312 c 0
 333.01953125 576.110351562 368.344726562 564.19140625 398.888671875 544.8125 c 0
 429.432617188 525.432617188 455.15625 498.78125 474.5859375 468.268554688 c 0
 513.444335938 407.243164062 527.389648438 332.081054688 520.161132812 260.095703125 c 0
  Spiro
    520.161 260.096 o
    269.503 0 o
    35.503 283 o
    296.929 578.56 o
    0 0 z
  EndSpiro
401.502929688 455 m 0
 368.615234375 475.317382812 328.170898438 482.1015625 289.947265625 476.325195312 c 0
 251.723632812 470.549804688 215.743164062 453.08203125 185.502929688 429 c 0
 136.30078125 389.817382812 100.408203125 332.215820312 93.4736328125 269.702148438 c 0
 90.005859375 238.444335938 94.158203125 206.182617188 106.8359375 177.401367188 c 0
 119.512695312 148.62109375 140.80859375 123.626953125 167.502929688 107 c 0
 187.978515625 94.2470703125 211.438476562 86.41796875 235.426757812 83.87890625 c 0
 259.415039062 81.3388671875 283.865234375 84.0234375 306.969726562 90.958984375 c 0
 353.177734375 104.828125 393.651367188 135.099609375 423.502929688 173 c 0
 456.48828125 214.879882812 477.418945312 267.486328125 475.80078125 320.772460938 c 0
 474.991210938 347.415039062 468.368164062 373.977539062 455.672851562 397.415039062 c 0
 442.977539062 420.852539062 424.1796875 440.991210938 401.502929688 455 c 0
  Spiro
    401.503 455 o
    185.503 429 o
    167.503 107 o
    423.503 173 o
    0 0 z
  EndSpiro
EndSplineSet
Validated: 37
EndChar

StartChar: uniE020
Encoding: 57376 57376 32
Width: 500
VWidth: 0
Flags: HW
LayerCount: 2
Fore
SplineSet
169.553710938 523 m 29
 156.553710938 471 l 25
 485.553710938 428 l 25
 488.553710938 511 l 25
 169.553710938 523 l 29
28.5537109375 584 m 1
 74.5537109375 571 l 1
 60.5537109375 602 62.5537109375 639 77.5537109375 669 c 0
 92.5537109375 699 121.553710938 721 154.553710938 728 c 0
 173.553710938 732 194.553710938 732 213.553710938 727 c 0
 232.553710938 722 250.553710938 712 265.553710938 700 c 0
 295.553710938 675 314.553710938 639 323.553710938 601 c 0
 332.553710938 563 331.553710938 522 325.553710938 483 c 0
 319.553710938 444 309.553710938 407 299.553710938 369 c 0
 283.553710938 309 267.553710938 248 262.553710938 186 c 0
 257.553710938 124 260.553710938 61 274.553710938 0 c 1
 320.553710938 0 l 1
 323.553710938 104 338.553710938 207 357.553710938 310 c 0
 376.553710938 412 399.553710938 516 378.553710938 618 c 0
 368.553710938 669 345.553710938 718 309.553710938 755 c 0
 273.553710938 792 222.553710938 815 170.553710938 814 c 0
 143.553710938 813 116.553710938 806 92.5537109375 793 c 0
 68.5537109375 780 48.5537109375 761 34.5537109375 738 c 0
 20.5537109375 715 12.5537109375 689 11.5537109375 662 c 0
 10.5537109375 635 16.5537109375 608 28.5537109375 584 c 1
EndSplineSet
Validated: 37
EndChar

StartChar: uniE021
Encoding: 57377 57377 33
Width: 400
VWidth: 0
Flags: HW
LayerCount: 2
Fore
SplineSet
49 463 m 1
 37 411 l 1
 363 395 l 5
 354 454 l 1
 49 463 l 1
145 812 m 25
 142 0 l 25
 259 0 l 25
 207 812 l 25
 145 812 l 25
EndSplineSet
Validated: 5
EndChar

StartChar: uniE022
Encoding: 57378 57378 34
Width: 500
VWidth: 0
Flags: HW
LayerCount: 2
Fore
SplineSet
3.953125 440 m 29
 356.953125 410 l 25
 335.953125 339 l 25
 40.953125 354 l 25
 3.953125 440 l 29
477.953125 584 m 1
 431.953125 571 l 1
 445.953125 602 444.953125 639 429.953125 669 c 0
 414.953125 699 384.953125 721 351.953125 728 c 0
 332.953125 732 312.953125 732 293.953125 727 c 0
 274.953125 722 256.953125 712 241.953125 700 c 0
 211.953125 675 191.953125 639 182.953125 601 c 0
 173.953125 563 174.953125 522 180.953125 483 c 0
 186.953125 444 197.953125 407 207.953125 369 c 0
 223.953125 309 238.953125 248 243.953125 186 c 0
 248.953125 124 245.953125 61 231.953125 0 c 1
 185.953125 0 l 1
 182.953125 104 167.953125 207 148.953125 310 c 0
 129.953125 412 106.953125 516 127.953125 618 c 0
 137.953125 669 161.953125 718 197.953125 755 c 0
 233.953125 792 284.953125 815 336.953125 814 c 0
 363.953125 813 389.953125 806 413.953125 793 c 0
 437.953125 780 457.953125 761 471.953125 738 c 0
 485.953125 715 494.953125 689 495.953125 662 c 0
 496.953125 635 489.953125 608 477.953125 584 c 1
EndSplineSet
Validated: 37
EndChar

StartChar: uniE023
Encoding: 57379 57379 35
Width: 850
VWidth: 0
Flags: HW
LayerCount: 2
Fore
SplineSet
404 472 m 1
 449 376 l 1
 830 364 l 1
 846 407 l 1
 404 472 l 1
846 407 m 1
 715 413 l 1
 705 128 201 219 70 342 c 1
 4 281 l 1
 156 121 813 40 846 407 c 1
EndSplineSet
Validated: 37
EndChar

StartChar: uniE024
Encoding: 57380 57380 36
Width: 850
VWidth: 0
InSpiro: 1
Flags: HW
LayerCount: 2
Fore
SplineSet
395.818359375 117.759765625 m 1
 401.961914062 44.0322265625 l 1
 825.8984375 39.935546875 l 1
 768.553710938 113.6640625 l 1
 395.818359375 117.759765625 l 1
  Spiro
    401.966 44.032 v
    825.902 39.936 v
    768.558 113.664 v
    395.822 117.76 v
    0 0 z
  EndSpiro
20.009765625 67.583984375 m 1
 118.314453125 21.50390625 l 1
 148.068359375 82.130859375 192.563476562 135.59765625 247.337890625 175.103515625 c 0
 317.799804688 225.924804688 407.254882812 252.978515625 493.09765625 239.616210938 c 0
 544.698242188 231.583984375 594.086914062 208.991210938 633.227539062 174.420898438 c 0
 672.368164062 139.849609375 701.001953125 93.5126953125 714.282226562 43.0078125 c 1
 829.994140625 37.8876953125 l 1
 787.65625 157.874023438 685.391601562 254.513671875 563.75390625 291.83984375 c 0
 451.802734375 326.193359375 326.96484375 311.48046875 222.76171875 258.047851562 c 0
 139.173828125 215.185546875 68.22265625 148.205078125 20.009765625 67.583984375 c 1
  Spiro
    20.014 67.584 v
    118.318 21.504 v
    247.342 175.104 o
    493.102 239.616 o
    714.286 43.008 v
    829.998 37.888 v
    563.758 291.84 o
    222.766 258.048 o
    0 0 z
  EndSpiro
20.009765625 95.232421875 m 1048
  Spiro
    20.014 95.232 {
    0 0 z
  EndSpiro
EndSplineSet
Validated: 37
EndChar

StartChar: uniE025
Encoding: 57381 57381 37
Width: 400
VWidth: 0
Flags: HW
LayerCount: 2
Fore
SplineSet
42 433 m 29
 389 433 l 25
 358 335 l 25
 42 402 l 25
 42 433 l 29
33 17 m 1
 11 70 l 1
 88 112 146 185 171 269 c 0
 188 327 190 390 180 449 c 0
 170 508 148 565 118 617 c 0
 93 660 63 701 28 737 c 1
 89 803 l 1
 126 745 158 684 185 621 c 0
 209 563 229 502 238 439 c 0
 247 376 246 312 229 251 c 0
 201 150 129 60 33 17 c 1
EndSplineSet
Validated: 37
EndChar

StartChar: uniE026
Encoding: 57382 57382 38
Width: 550
VWidth: 0
Flags: HW
LayerCount: 2
Fore
SplineSet
80.3134765625 590 m 29
 406.313476562 599 l 25
 384.313476562 522 l 25
 22.3134765625 516 l 25
 80.3134765625 590 l 29
371.313476562 765 m 1
 426.313476562 725 l 1
 328.313476562 637 240.313476562 536 187.313476562 415 c 0
 160.313476562 353 144.313476562 284 156.313476562 218 c 0
 162.313476562 185 174.313476562 153 194.313476562 126 c 0
 214.313476562 99 242.313476562 77 273.313476562 65 c 0
 314.313476562 49 362.313476562 49 402.313476562 69 c 0
 442.313476562 89 473.313476562 126 485.313476562 169 c 0
 494.313476562 203 492.313476562 239 479.313476562 271 c 0
 466.313476562 303 441.313476562 331 411.313476562 349 c 0
 381.313476562 367 346.313476562 374 311.313476562 370 c 0
 276.313476562 366 243.313476562 350 218.313476562 326 c 1
 208.313476562 384 l 1
 246.313476562 407 292.313476562 418 336.313476562 414 c 0
 380.313476562 410 423.313476562 392 456.313476562 363 c 0
 489.313476562 334 514.313476562 293 523.313476562 250 c 0
 532.313476562 207 527.313476562 161 509.313476562 120 c 0
 483.313476562 63 431.313476562 19 371.313476562 4 c 0
 311.313476562 -11 244.313476562 1 193.313476562 37 c 0
 140.313476562 74 103.313476562 134 89.3134765625 197 c 0
 75.3134765625 260 80.3134765625 327 98.3134765625 390 c 0
 140.313476562 542 245.313476562 671 371.313476562 765 c 1
EndSplineSet
Validated: 37
EndChar

StartChar: uniE027
Encoding: 57383 57383 39
Width: 600
VWidth: 0
Flags: HW
LayerCount: 2
Fore
SplineSet
234.5 361 m 1
 627.5 365 l 1
 630.5 269 l 1
 224.5 263 l 1
 234.5 361 l 1
-30.5 58 m 1
 237.5 780 l 1
 590.5 31 l 1
 467.5 15 l 1
 240.5 642 l 1
 114.5 0 l 1
 -30.5 58 l 1
EndSplineSet
Validated: 5
EndChar

StartChar: uniE028
Encoding: 57384 57384 40
Width: 600
VWidth: 0
Flags: HW
LayerCount: 2
Fore
SplineSet
231.5 496 m 29
 631.5 481 l 1
 612.5 401 l 25
 210.5 416 l 1
 231.5 496 l 29
-31.5 802 m 1
 500.5 814 l 1
 489.5 622 468.5 430 438.5 240 c 0
 425.5 160 411.5 80 395.5 0 c 1
 328.5 18 l 1
 364.5 164 389.5 314 404.5 464 c 0
 413.5 555 419.5 646 420.5 737 c 1
 -6.5 713 l 1
 -31.5 802 l 1
EndSplineSet
Validated: 5
EndChar

StartChar: uniE029
Encoding: 57385 57385 41
Width: 800
VWidth: 0
InSpiro: 1
Flags: HW
LayerCount: 2
Fore
SplineSet
298.915039062 299 m 25
 590.915039062 308 l 25
 596.915039062 250 l 25
 335.915039062 250 l 25
 298.915039062 299 l 25
  Spiro
    298.916 299 v
    590.916 308 v
    596.916 250 v
    335.916 250 v
    0 0 z
  EndSpiro
82.9150390625 648 m 1
 115.915039062 664 152.915039062 673 188.915039062 673 c 0
 224.915039062 673 260.915039062 665 294.915039062 651 c 0
 350.915039062 628 399.915039062 590 456.915039062 567 c 0
 484.915039062 556 516.915039062 549 546.915039062 552 c 0
 576.915039062 555 606.915039062 567 626.915039062 590 c 0
 640.915039062 606 649.915039062 626 651.915039062 647 c 0
 653.915039062 668 648.915039062 689 636.915039062 707 c 0
 624.915039062 725 607.915039062 738 587.915039062 744 c 0
 567.915039062 750 545.915039062 750 525.915039062 743 c 0
 493.915039062 732 466.915039062 707 452.915039062 676 c 0
 438.915039062 645 434.915039062 612 436.915039062 578 c 0
 441.915039062 479 486.915039062 385 499.915039062 287 c 0
 512.915039062 189 495.915039062 85 445.915039062 0 c 1
 383.915039062 0 l 1
 408.915039062 50 424.915039062 105 429.915039062 161 c 0
 434.915039062 217 428.915039062 274 417.915039062 329 c 0
 403.915039062 397 382.915039062 462 373.915039062 531 c 0
 368.915039062 565 367.915039062 601 372.915039062 635 c 0
 377.915039062 669 389.915039062 702 408.915039062 731 c 0
 426.915039062 758 450.915039062 781 478.915039062 796 c 0
 506.915039062 811 539.915039062 818 571.915039062 817 c 0
 602.915039062 816 633.915039062 806 658.915039062 788 c 0
 683.915039062 770 704.915039062 743 714.915039062 714 c 0
 724.915039062 685 725.915039062 652 716.915039062 622 c 0
 707.915039062 592 688.915039062 566 663.915039062 547 c 0
 637.915039062 527 606.915039062 515 573.915039062 511 c 0
 540.915039062 507 507.915039062 510 475.915039062 516 c 0
 411.915039062 529 349.915039062 554 285.915039062 568 c 0
 216.915039062 583 143.915039062 582 76.9150390625 562 c 1
 82.9150390625 648 l 1
  Spiro
    82.9156 648 v
    117.029 661.581 o
    152.804 670.08 o
    188.916 673 o
    224.806 670.413 o
    260.359 662.916 o
    294.916 651 o
    349.085 624.141 o
    402.08 593.859 o
    456.916 567 o
    485.997 557.563 o
    516.502 552.108 o
    546.916 552 o
    576.517 558.065 o
    603.979 570.608 o
    626.916 590 o
    639.165 607.204 o
    647.663 626.464 o
    651.916 647 o
    651.585 667.868 o
    646.575 688.131 o
    636.916 707 o
    623.339 723.245 o
    606.824 735.751 o
    587.916 744 o
    567.418 747.961 o
    546.414 747.701 o
    525.916 743 o
    495.907 727.649 o
    470.931 704.678 o
    452.916 676 o
    442.109 644.403 o
    437.062 611.596 o
    436.916 578 o
    452.559 480.43 o
    478.942 383.904 o
    499.916 287 o
    502.812 188.025 o
    484.999 90.3125 o
    445.916 0 v
    383.916 0 v
    405.823 51.4656 o
    421.336 105.536 o
    429.916 161 o
    431.473 217.166 o
    427.02 273.5 o
    417.916 329 o
    402.303 396.192 o
    386.197 463.141 o
    373.916 531 o
    370.326 565.484 o
    369.843 600.516 o
    372.916 635 o
    380.24 668.523 o
    392.264 700.809 o
    408.916 731 o
    428.82 756.495 o
    452.349 778.501 o
    478.916 796 o
    508.33 808.324 o
    539.837 815.338 o
    571.916 817 o
    602.663 813.044 o
    632.167 803.284 o
    658.916 788 o
    682.302 767.282 o
    701.525 742.047 o
    714.916 714 o
    721.875 683.957 o
    722.617 652.71 o
    716.916 622 o
    704.746 593.471 o
    686.747 568.199 o
    663.916 547 o
    636.389 529.681 o
    606.107 517.657 o
    573.916 511 o
    540.986 509.185 o
    508.18 511.152 o
    475.916 516 o
    412.498 532.13 o
    349.334 551.204 o
    285.916 568 o
    216.024 577.552 o
    145.476 575.77 o
    76.9156 562 v
    0 0 z
  EndSpiro
EndSplineSet
Validated: 37
EndChar

StartChar: uniE02A
Encoding: 57386 57386 42
Width: 400
VWidth: 0
InSpiro: 1
Flags: HW
LayerCount: 2
Fore
SplineSet
44 191 m 1
 335 416 l 1
 400 338 l 1
 116 116 l 1
 44 191 l 1
  Spiro
    44 191 v
    335 416 v
    400 338 v
    116 116 v
    0 0 z
  EndSpiro
400 813 m 1
 390.359917921 736.970459699 365.007399761 662.968514798 326 597 c 0
 284.623766951 527.025362906 227.90252574 466.178940517 161 420 c 1
 211.480863904 371.743267083 255.933893612 317.187276078 293 258 c 0
 342.64397788 178.728338887 378.969926646 91.1386680289 400 0 c 1
 251 0 l 1
 242.879861907 94.8848795495 210.584846232 187.60282778 158 267 c 0
 116.473562862 329.700224826 62.4369830948 384.078808262 0 426 c 1
 88.8271487604 470.915170619 163.702872586 542.965395433 212 630 c 0
 244.285218227 688.180089629 264.815774316 752.85134131 272 819 c 1
 400 813 l 1
  Spiro
    400 813 v
    326 597 o
    161 420 v
    293 258 o
    400 0 v
    251 0 v
    158 267 o
    0 426 v
    212 630 o
    272 819 v
    0 0 z
  EndSpiro
EndSplineSet
EndChar

StartChar: uniE02B
Encoding: 57387 57387 43
Width: 600
VWidth: 0
InSpiro: 1
Flags: HW
LayerCount: 2
Fore
SplineSet
531.310141673 645.12 m 1
 440.308180564 542.483880922 331.994595392 456.982233454 234 361 c 0
 210.176818131 337.666037606 187.167941015 313.287503232 168 286 c 0
 147.859425908 257.327855182 131.839990996 224.003917229 132.252215228 188.967298037 c 0
 132.458327344 171.448988441 136.99164574 153.851374712 146.276271966 138.994411053 c 0
 155.560898192 124.137447395 169.631078103 112.244361396 186 106 c 0
 200.089968547 100.62500608 215.71098683 99.4542014756 230.502851374 102.389932492 c 0
 245.294715918 105.325663508 259.183285992 112.282495947 270.839590682 121.850585322 c 0
 294.152200062 140.986764071 307.987480398 169.665793652 315 199 c 0
 331.145423057 266.538231394 320.151974946 337.460078492 309 406 c 0
 286.280155334 545.635927947 250.045307768 682.685395043 216 820 c 1
 327 823 l 1
 348.387501485 715.859233543 372.320537975 609.219153243 392.046141673 501.76 c 0
 402.626546328 444.121139225 411.69189064 386.019469232 413.693047421 327.451742576 c 0
 415.694204202 268.88401592 410.414604678 209.162883196 388.974141673 154.624 c 0
 371.154470189 109.29545549 341.201077529 67.7099738247 299.806981256 42.0439177801 c 0
 279.10993312 29.2108897578 255.778316624 20.5188738119 231.633518174 17.3434812986 c 0
 207.488719724 14.1680887853 182.596710811 16.5684893154 159.598141673 24.576 c 0
 129.234180923 35.1479507446 102.48567299 55.5569440339 83.7656835529 81.6969182195 c 0
 65.0456941161 107.836892405 54.35304853 139.377842113 51.6407353349 171.415001976 c 0
 46.2161089448 235.489321701 71.8850322323 298.79610801 108 352 c 0
 155.999879048 422.712519996 220.567061966 480.384327193 284.902506606 536.644432382 c 0
 349.237951246 592.90453757 414.848007202 647.687553777 480 703 c 1
 531.310141673 645.12 l 1
  Spiro
    531.31 645.12 v
    234 361 o
    168 286 o
    186 106 o
    315 199 o
    309 406 o
    216 820 v
    327 823 v
    392.046 501.76 o
    388.974 154.624 o
    159.598 24.576 o
    108 352 o
    480 703 v
    0 0 z
  EndSpiro
EndSplineSet
Validated: 37
EndChar

StartChar: uniE02C
Encoding: 57388 57388 44
Width: 400
VWidth: 0
InSpiro: 1
Flags: HW
LayerCount: 2
Fore
SplineSet
71 227 m 1
 323 416 l 1
 353.828546713 348.16 l 1
 110 152 l 1
 71 227 l 1
  Spiro
    71 227 v
    323 416 v
    353.829 348.16 v
    110 152 v
    0 0 z
  EndSpiro
-134.619140625 254.975585938 m 1024
  Spiro
    -134.619 254.976 {
    0 0 z
  EndSpiro
316.964546713 794.624 m 1
 287 713 l 1
 271.685696771 725.803404605 253.092549382 734.651798572 233.498094649 738.461312527 c 0
 213.903639915 742.270826482 193.34961728 741.033345529 174.353757725 734.900452848 c 0
 155.357898169 728.767560168 137.96066603 717.752319839 124.293106462 703.204025495 c 0
 110.625546894 688.655731151 100.716774068 670.605373073 95.7805467127 651.264 c 0
 90.1723098727 629.289525732 91.0359593603 605.704713056 98.2363819126 584.199277584 c 0
 105.436804465 562.693842111 118.948533893 543.343843473 136.657733648 529.176483669 c 0
 154.366933403 515.009123865 176.210970241 506.07450949 198.772463458 503.770412347 c 0
 221.333956674 501.466315205 244.533111612 505.800884341 264.740546713 516.096 c 1
 267.812546713 0 l 1
 187.940546713 0 l 1
 200 431 l 1
 147.83357487 435.638691305 97.9711453968 462.226762606 65.0507264884 502.95880634 c 0
 32.1303075799 543.690850074 16.5929776688 598.02112513 23 650 c 0
 30.9127474116 714.194517565 72.8652627001 773.193859057 130.902163158 801.746719548 c 0
 188.939063616 830.29958004 261.280384329 827.530256497 316.964546713 794.624 c 1
  Spiro
    316.965 794.624 v
    287 713 v
    95.7805 651.264 o
    264.741 516.096 v
    267.813 0 v
    187.941 0 v
    200 431 v
    23 650 o
    0 0 z
  EndSpiro
EndSplineSet
Validated: 37
EndChar

StartChar: uniE02D
Encoding: 57389 57389 45
Width: 800
VWidth: 0
Flags: HW
LayerCount: 2
Fore
SplineSet
270.19140625 413 m 1
 605.19140625 662 l 1
 725.19140625 600 l 1
 350.19140625 388 l 1
 270.19140625 413 l 1
331.19140625 579 m 0
 372.19140625 581 414.19140625 573 452.19140625 556 c 0
 490.19140625 539 523.19140625 514 549.19140625 482 c 0
 602.19140625 418 625.19140625 332 614.19140625 250 c 0
 606.19140625 187 579.19140625 127 535.19140625 81 c 0
 491.19140625 35 431.19140625 6 368.19140625 0 c 0
 327.19140625 -4 286.19140625 2 248.19140625 18 c 0
 210.19140625 34 176.19140625 58 149.19140625 89 c 0
 95.19140625 150 68.19140625 235 76.19140625 317 c 0
 82.19140625 383 110.19140625 447 156.19140625 495 c 0
 202.19140625 543 265.19140625 575 331.19140625 579 c 0
325.19140625 508 m 0
 282.19140625 502 241.19140625 481 210.19140625 451 c 0
 179.19140625 421 156.19140625 382 147.19140625 339 c 0
 133.19140625 275 148.19140625 206 187.19140625 154 c 0
 207.19140625 128 232.19140625 106 261.19140625 92 c 0
 290.19140625 78 323.19140625 71 356.19140625 72 c 0
 403.19140625 73 449.19140625 92 485.19140625 123 c 0
 521.19140625 154 546.19140625 198 556.19140625 244 c 0
 571.19140625 311 553.19140625 384 509.19140625 436 c 0
 487.19140625 462 458.19140625 483 426.19140625 496 c 0
 394.19140625 509 359.19140625 513 325.19140625 508 c 0
EndSplineSet
Validated: 37
EndChar

StartChar: uniE02E
Encoding: 57390 57390 46
Width: 500
VWidth: 0
Flags: HW
LayerCount: 2
Fore
SplineSet
55.5537109375 308 m 1
 132.553710938 305 l 1
 534.553710938 643 l 5
 450.553710938 646 l 1
 55.5537109375 308 l 1
-17.4462890625 584 m 1
 28.5537109375 571 l 1
 14.5537109375 602 16.5537109375 639 31.5537109375 669 c 0
 46.5537109375 699 75.5537109375 721 108.553710938 728 c 0
 127.553710938 732 148.553710938 732 167.553710938 727 c 0
 186.553710938 722 204.553710938 712 219.553710938 700 c 0
 249.553710938 675 268.553710938 639 277.553710938 601 c 0
 286.553710938 563 285.553710938 522 279.553710938 483 c 0
 273.553710938 444 263.553710938 407 253.553710938 369 c 0
 237.553710938 309 221.553710938 248 216.553710938 186 c 0
 211.553710938 124 214.553710938 61 228.553710938 0 c 1
 274.553710938 0 l 1
 277.553710938 104 292.553710938 207 311.553710938 310 c 0
 330.553710938 412 353.553710938 516 332.553710938 618 c 0
 322.553710938 669 299.553710938 718 263.553710938 755 c 0
 227.553710938 792 176.553710938 815 124.553710938 814 c 0
 97.5537109375 813 70.5537109375 806 46.5537109375 793 c 0
 22.5537109375 780 2.5537109375 761 -11.4462890625 738 c 0
 -25.4462890625 715 -33.4462890625 689 -34.4462890625 662 c 0
 -35.4462890625 635 -29.4462890625 608 -17.4462890625 584 c 1
EndSplineSet
Validated: 37
EndChar

StartChar: uniE02F
Encoding: 57391 57391 47
Width: 400
VWidth: 0
Flags: HW
LayerCount: 2
Fore
SplineSet
45 223 m 5
 456 570 l 1
 340 558 l 1
 -56 229 l 1
 45 223 l 5
147 812 m 25
 144 0 l 25
 261 0 l 25
 209 812 l 25
 147 812 l 25
EndSplineSet
Validated: 5
EndChar

StartChar: uniE030
Encoding: 57392 57392 48
Width: 500
VWidth: 0
Flags: HW
LayerCount: 2
Fore
SplineSet
90.953125 142 m 5
 23.953125 145 l 1
 250.953125 407 l 1
 330.953125 379 l 1
 90.953125 142 l 5
457.953125 584 m 1
 411.953125 571 l 1
 425.953125 602 424.953125 639 409.953125 669 c 0
 394.953125 699 364.953125 721 331.953125 728 c 0
 312.953125 732 292.953125 732 273.953125 727 c 0
 254.953125 722 236.953125 712 221.953125 700 c 0
 191.953125 675 171.953125 639 162.953125 601 c 0
 153.953125 563 154.953125 522 160.953125 483 c 0
 166.953125 444 177.953125 407 187.953125 369 c 0
 203.953125 309 218.953125 248 223.953125 186 c 0
 228.953125 124 225.953125 61 211.953125 0 c 1
 165.953125 0 l 1
 162.953125 104 147.953125 207 128.953125 310 c 0
 109.953125 412 86.953125 516 107.953125 618 c 0
 117.953125 669 141.953125 718 177.953125 755 c 0
 213.953125 792 264.953125 815 316.953125 814 c 0
 343.953125 813 369.953125 806 393.953125 793 c 0
 417.953125 780 437.953125 761 451.953125 738 c 0
 465.953125 715 474.953125 689 475.953125 662 c 0
 476.953125 635 469.953125 608 457.953125 584 c 1
EndSplineSet
Validated: 37
EndChar

StartChar: uniE031
Encoding: 57393 57393 49
Width: 850
VWidth: 0
InSpiro: 1
Flags: HW
LayerCount: 2
Fore
SplineSet
82.9833984375 138.240234375 m 1
 117.799804688 103.423828125 l 1
 304.16796875 377.856445312 l 1
 250.919921875 412.671875 l 1
 82.9833984375 138.240234375 l 1
  Spiro
    117.8 103.424 v
    304.168 377.856 v
    250.92 412.672 v
    82.9838 138.24 v
    0 0 z
  EndSpiro
828.456054688 309.248046875 m 1
 754.727539062 358.400390625 l 1
 631.84765625 129.024414062 218.151367188 219.135742188 87.080078125 342.015625 c 1
 21.5439453125 280.576171875 l 1
 173.095703125 120.83203125 717.86328125 63.48828125 828.456054688 309.248046875 c 1
  Spiro
    828.456 309.248 v
    754.728 358.4 v
    556.4 224.949 o
    290.866 240.748 o
    87.0798 342.016 v
    21.5438 280.576 v
    273.202 162.468 o
    604.09 157.155 o
    0 0 z
  EndSpiro
EndSplineSet
Validated: 37
EndChar

StartChar: uniE032
Encoding: 57394 57394 50
Width: 850
VWidth: 0
InSpiro: 1
Flags: HW
LayerCount: 2
Fore
SplineSet
597.030273438 101.375976562 m 1
 631.846679688 70.65625 l 1
 812.0703125 250.879882812 l 1
 760.870117188 310.272460938 l 1
 597.030273438 101.375976562 l 1
  Spiro
    631.846 70.656 v
    812.07 250.88 v
    760.87 310.272 v
    597.03 101.376 v
    0 0 z
  EndSpiro
28.7099609375 67.583984375 m 1
 127.014648438 21.50390625 l 1
 156.768554688 82.130859375 201.263671875 135.59765625 256.038085938 175.103515625 c 0
 326.5 225.924804688 415.955078125 252.978515625 501.797851562 239.616210938 c 0
 553.3984375 231.583984375 602.787109375 208.991210938 641.927734375 174.420898438 c 0
 681.068359375 139.849609375 709.702148438 93.5126953125 722.982421875 43.0078125 c 1
 821.286132812 98.3037109375 l 1
 766.552734375 190.924804688 675.616210938 261.3125 572.454101562 291.83984375 c 0
 460.26171875 325.040039062 335.76171875 311.06640625 231.461914062 258.047851562 c 0
 147.69140625 215.46484375 76.5947265625 148.442382812 28.7099609375 67.583984375 c 1
  Spiro
    28.7102 67.584 v
    127.014 21.504 v
    256.038 175.104 o
    501.798 239.616 o
    722.982 43.008 v
    821.286 98.304 v
    572.454 291.84 o
    231.462 258.048 o
    0 0 z
  EndSpiro
28.7099609375 95.232421875 m 1048
  Spiro
    28.7102 95.232 {
    0 0 z
  EndSpiro
EndSplineSet
Validated: 37
EndChar

StartChar: uniE033
Encoding: 57395 57395 51
Width: 400
VWidth: 0
Flags: HW
LayerCount: 2
Fore
SplineSet
146 467 m 5
 94 510 l 1
 266 734 l 1
 337 670 l 1
 146 467 l 5
85 17 m 1
 63 70 l 1
 140 112 198 185 223 269 c 0
 240 327 242 390 232 449 c 0
 222 508 200 565 170 617 c 0
 145 660 115 701 80 737 c 1
 141 803 l 1
 178 745 210 684 237 621 c 0
 261 563 281 502 290 439 c 0
 299 376 298 312 281 251 c 0
 253 150 181 60 85 17 c 1
EndSplineSet
Validated: 37
EndChar

StartChar: uniE034
Encoding: 57396 57396 52
Width: 550
VWidth: 0
InSpiro: 1
Flags: HW
LayerCount: 2
Fore
SplineSet
270.12109375 242.688476562 m 1
 491.3046875 427.0078125 l 1
 534.3125 405.50390625 l 1
 306.985351562 199.6796875 l 1
 270.12109375 242.688476562 l 1
  Spiro
    270.12 242.688 v
    491.304 427.008 v
    534.312 405.504 v
    306.984 199.68 v
    0 0 z
  EndSpiro
305.9609375 764.927734375 m 1
 361.256835938 724.9921875 l 1
 263.275390625 637.149414062 174.373046875 535.28515625 121.640625 414.719726562 c 0
 94.6611328125 353.033203125 78.9736328125 284.385742188 90.4873046875 218.048828125 c 0
 96.244140625 184.880859375 108.958984375 152.733398438 128.950195312 125.646484375 c 0
 148.94140625 98.560546875 176.293945312 76.74609375 207.657226562 64.51171875 c 0
 249.055664062 48.3623046875 297.186523438 49.7978515625 337.096679688 69.3388671875 c 0
 377.006835938 88.8798828125 407.810546875 126.122070312 419.625 168.959960938 c 0
 428.875976562 202.504882812 426.663085938 239.086914062 413.518554688 271.305664062 c 0
 400.373046875 303.524414062 376.380859375 331.19921875 346.374023438 348.819335938 c 0
 316.3671875 366.439453125 280.521484375 373.908203125 245.97265625 369.754882812 c 0
 211.423828125 365.6015625 178.372070312 349.849609375 153.384765625 325.631835938 c 1
 143.14453125 384 l 1
 180.994140625 407.29296875 226.384765625 418.10546875 270.669921875 414.375976562 c 0
 314.955078125 410.646484375 357.899414062 392.39453125 391.314453125 363.092773438 c 0
 424.728515625 333.791015625 448.434570312 293.59375 457.884765625 250.16796875 c 0
 467.3359375 206.7421875 462.477539062 160.318359375 444.201171875 119.807617188 c 0
 418.5859375 63.03125 366.1953125 19.083984375 305.862304688 3.6025390625 c 0
 245.530273438 -11.8798828125 178.954101562 1.3466796875 127.78515625 36.8642578125 c 0
 74.302734375 73.9873046875 38.4423828125 133.548828125 23.9765625 197.025390625 c 0
 9.5107421875 260.501953125 14.9990234375 327.451171875 32.552734375 390.143554688 c 0
 74.974609375 541.651367188 179.573242188 671.225585938 305.9609375 764.927734375 c 1
  Spiro
    305.96 764.928 v
    361.256 724.992 v
    121.64 414.72 o
    207.656 64.512 o
    419.624 168.96 o
    153.384 325.632 v
    143.144 384 v
    444.2 119.808 o
    127.784 36.864 o
    32.5518 390.144 o
    0 0 z
  EndSpiro
EndSplineSet
Validated: 37
EndChar

StartChar: uniE035
Encoding: 57397 57397 53
Width: 600
VWidth: 0
InSpiro: 1
Flags: HW
LayerCount: 2
Fore
SplineSet
217.056640625 109.568359375 m 1
 539.615234375 462.84765625 l 1
 591.83984375 407.551757812 l 1
 315.359375 51.2001953125 l 1
 217.056640625 109.568359375 l 1
  Spiro
    217.055 109.568 v
    539.615 462.848 v
    591.839 407.552 v
    315.359 51.2 v
    0 0 z
  EndSpiro
-10.271484375 58.3681640625 m 1
 256.9921875 780.288085938 l 1
 610.271484375 30.7197265625 l 1
 487.392578125 15.3603515625 l 1
 260.064453125 642.047851562 l 1
 134.111328125 0 l 1
 -10.271484375 58.3681640625 l 1
  Spiro
    -10.2734 58.368 v
    256.991 780.288 v
    610.271 30.72 v
    487.391 15.36 v
    260.063 642.048 v
    134.111 0 v
    0 0 z
  EndSpiro
EndSplineSet
Validated: 5
EndChar

StartChar: uniE036
Encoding: 57398 57398 54
Width: 600
VWidth: 0
InSpiro: 1
Flags: HW
LayerCount: 2
Fore
SplineSet
230.3671875 210.944335938 m 1
 574.431640625 505.856445312 l 1
 635.87109375 464.896484375 l 1
 282.591796875 155.6484375 l 1
 230.3671875 210.944335938 l 1
  Spiro
    230.368 210.944 v
    574.432 505.856 v
    635.872 464.896 v
    282.592 155.648 v
    0 0 z
  EndSpiro
-35.87109375 801.791992188 m 1
 495.583984375 814.080078125 l 1
 484.693359375 621.727539062 464.1796875 429.920898438 434.14453125 239.616210938 c 0
 421.4921875 159.454101562 407.15234375 79.55859375 391.13671875 0 c 1
 323.552734375 18.431640625 l 1
 359.708984375 164.83203125 385.39453125 313.81640625 400.3515625 463.872070312 c 0
 409.408203125 554.729492188 414.53515625 645.979492188 415.712890625 737.280273438 c 1
 -11.296875 712.704101562 l 1
 -35.87109375 801.791992188 l 1
  Spiro
    -35.8716 801.792 v
    495.584 814.08 v
    434.144 239.616 o
    391.136 0 v
    323.552 18.432 v
    400.352 463.872 o
    415.712 737.28 v
    -11.2956 712.704 v
    0 0 z
  EndSpiro
EndSplineSet
Validated: 5
EndChar

StartChar: uniE037
Encoding: 57399 57399 55
Width: 800
VWidth: 0
Flags: HW
LayerCount: 2
Fore
SplineSet
295.915039062 158 m 1
 569.915039062 376 l 1
 618.915039062 345 l 1
 329.915039062 109 l 1
 295.915039062 158 l 1
82.9150390625 648 m 1
 115.915039062 664 152.915039062 673 188.915039062 673 c 0
 224.915039062 673 260.915039062 665 294.915039062 651 c 0
 350.915039062 628 399.915039062 590 456.915039062 567 c 0
 484.915039062 556 516.915039062 549 546.915039062 552 c 0
 576.915039062 555 606.915039062 567 626.915039062 590 c 0
 640.915039062 606 649.915039062 626 651.915039062 647 c 0
 653.915039062 668 648.915039062 689 636.915039062 707 c 0
 624.915039062 725 607.915039062 738 587.915039062 744 c 0
 567.915039062 750 545.915039062 750 525.915039062 743 c 0
 493.915039062 732 466.915039062 707 452.915039062 676 c 0
 438.915039062 645 434.915039062 612 436.915039062 578 c 0
 441.915039062 479 486.915039062 385 499.915039062 287 c 0
 512.915039062 189 495.915039062 85 445.915039062 0 c 1
 383.915039062 0 l 1
 408.915039062 50 424.915039062 105 429.915039062 161 c 0
 434.915039062 217 428.915039062 274 417.915039062 329 c 0
 403.915039062 397 382.915039062 462 373.915039062 531 c 0
 368.915039062 565 367.915039062 601 372.915039062 635 c 0
 377.915039062 669 389.915039062 702 408.915039062 731 c 0
 426.915039062 758 450.915039062 781 478.915039062 796 c 0
 506.915039062 811 539.915039062 818 571.915039062 817 c 0
 602.915039062 816 633.915039062 806 658.915039062 788 c 0
 683.915039062 770 704.915039062 743 714.915039062 714 c 0
 724.915039062 685 725.915039062 652 716.915039062 622 c 0
 707.915039062 592 688.915039062 566 663.915039062 547 c 0
 637.915039062 527 606.915039062 515 573.915039062 511 c 0
 540.915039062 507 507.915039062 510 475.915039062 516 c 0
 411.915039062 529 349.915039062 554 285.915039062 568 c 0
 216.915039062 583 143.915039062 582 76.9150390625 562 c 1
 82.9150390625 648 l 1
EndSplineSet
Validated: 37
EndChar

StartChar: uniE038
Encoding: 57400 57400 56
Width: 400
VWidth: 0
InSpiro: 1
Flags: HW
LayerCount: 2
Fore
SplineSet
41 65 m 1
 400 263 l 1
 431 185 l 1
 95 0 l 1
 41 65 l 1
  Spiro
    41 65 v
    400 263 v
    431 185 v
    95 0 v
    0 0 z
  EndSpiro
0 200 m 1
 314 431 l 1
 359 359 l 1
 44 143 l 1
 0 200 l 1
  Spiro
    0 200 v
    314 431 v
    359 359 v
    44 143 v
    0 0 z
  EndSpiro
400 813 m 1
 390.359917921 736.970459699 365.007399761 662.968514798 326 597 c 0
 284.623766951 527.025362906 227.90252574 466.178940517 161 420 c 1
 211.480863904 371.743267083 255.933893612 317.187276078 293 258 c 0
 342.64397788 178.728338887 378.969926646 91.1386680289 400 0 c 1
 251 0 l 1
 242.879861907 94.8848795495 210.584846232 187.60282778 158 267 c 0
 116.473562862 329.700224826 62.4369830948 384.078808262 0 426 c 1
 88.8271487604 470.915170619 163.702872586 542.965395433 212 630 c 0
 244.285218227 688.180089629 264.815774316 752.85134131 272 819 c 1
 400 813 l 1
  Spiro
    400 813 v
    326 597 o
    161 420 v
    293 258 o
    400 0 v
    251 0 v
    158 267 o
    0 426 v
    212 630 o
    272 819 v
    0 0 z
  EndSpiro
EndSplineSet
EndChar

StartChar: uniE039
Encoding: 57401 57401 57
Width: 600
VWidth: 0
InSpiro: 1
Flags: HW
LayerCount: 2
Fore
SplineSet
183 513 m 1
 144 583 l 1
 447 790 l 1
 492 739 l 1
 183 513 l 1
  Spiro
    183 513 v
    144 583 v
    447 790 v
    492 739 v
    0 0 z
  EndSpiro
525 577 m 1
 483.440483929 535.486807038 440.519081964 495.322185573 396 457 c 0
 339.285296271 408.17977943 277.169568982 366.077306635 219 319 c 0
 201.200339161 304.594528101 184.060969191 289.200439093 169.562079895 271.476789475 c 0
 155.063190599 253.753139856 143.252742988 233.490751289 137.508478531 211.324358428 c 0
 131.764214075 189.157965567 132.434645805 165.047733634 141.374899337 143.966523674 c 0
 150.315152869 122.885313714 167.688839384 105.37734921 189 97 c 0
 207.479448656 89.7357877221 228.479612441 89.3973816234 247.381490602 95.4783194336 c 0
 266.283368763 101.559257244 282.94015117 113.809949538 295.476552239 129.207918589 c 0
 308.012953307 144.605887641 316.551795742 163.007016652 321.875010339 182.136109391 c 0
 327.198224936 201.26520213 329.424168624 221.152400123 330 241 c 0
 332.189832832 316.47856484 317.386705222 391.353151022 306 466 c 0
 287.945051414 584.36128135 266.237014869 702.179654417 240 819 c 1
 330 816 l 1
 350.21498715 657.44630264 392.327290346 502.066925614 408 343 c 0
 414.81275858 273.855315624 413.730889543 202.183014837 388.707954246 137.36593556 c 0
 376.196486598 104.957395921 357.590884101 74.6783295396 332.767455204 50.375086093 c 0
 307.944026307 26.0718426463 276.816841402 7.95433855439 243 0 c 0
 214.906040844 -6.60821215702 185.107134477 -6.12814346763 157.38871541 1.9110264776 c 0
 129.670296343 9.95019642283 104.176910123 25.5479434072 84.4535711504 46.6175639246 c 0
 64.7302321774 67.687184442 50.8694852827 94.1047998038 44.2724828658 122.201393336 c 0
 37.6754804488 150.297986868 38.3029014137 179.927097059 45 208 c 0
 53.7030530216 244.481464266 72.4345150443 278.062503381 95.9693897111 307.264387589 c 0
 119.504264378 336.466271797 147.682514171 361.609288349 177 385 c 0
 277.650737367 465.303351691 385.937208517 537.063085098 474 631 c 1
 525 577 l 1
  Spiro
    525 577 v
    396 457 o
    219 319 o
    189 97 o
    330 241 o
    306 466 o
    240 819 v
    330 816 v
    408 343 o
    243 0 o
    45 208 o
    177 385 o
    474 631 v
    0 0 z
  EndSpiro
EndSplineSet
Validated: 37
EndChar

StartChar: uniE03A
Encoding: 57402 57402 58
Width: 400
VWidth: 0
InSpiro: 1
Flags: HW
LayerCount: 2
Fore
SplineSet
71.204219544 108.544 m 0
 344.612219544 281.6 l 0
 374 212 l 0
 86 47 l 0
 71.204219544 108.544 l 0
  Spiro
    71.2042 108.544 ]
    344.612 281.6 ]
    374 212 ]
    86 47 ]
    0 0 z
  EndSpiro
44 254 m 1
 317 431 l 1
 353 359 l 1
 65.060219544 173.056 l 1
 44 254 l 1
  Spiro
    44 254 v
    317 431 v
    353 359 v
    65.0602 173.056 v
    0 0 z
  EndSpiro
295.460219544 794.624 m 1
 275 716 l 1
 258.324925655 728.91411151 238.048559222 737.127004502 217.086677873 739.457650513 c 0
 196.124796525 741.788296523 174.53962602 738.229776982 155.435151861 729.293813263 c 0
 136.330677702 720.357849543 119.763611897 706.070968229 108.116327663 688.487647995 c 0
 96.4690434293 670.904327761 89.7761159589 650.076765039 89 629 c 0
 87.6187377936 591.489446777 105.874533772 553.797952026 136.162690476 531.626415051 c 0
 166.45084718 509.454878076 207.897009001 503.443344685 243.236219544 516.096 c 1
 246.308219544 0 l 1
 166.436219544 0 l 1
 170 431 l 1
 123.594438852 442.375872939 81.8218722271 471.662842377 55.3082634177 511.41098873 c 0
 28.7946546084 551.159135082 17.8011425969 600.976969188 25.124219544 648.192 c 0
 34.2073112399 706.754603861 71.8853677834 760.192955074 123.994684067 788.418834727 c 0
 176.10400035 816.644714381 241.446953599 819.009410138 295.460219544 794.624 c 1
  Spiro
    295.46 794.624 v
    275 716 v
    89 629 o
    243.236 516.096 v
    246.308 0 v
    166.436 0 v
    170 431 v
    25.1242 648.192 o
    0 0 z
  EndSpiro
EndSplineSet
Validated: 37
EndChar

StartChar: uniE03B
Encoding: 57403 57403 59
Width: 800
VWidth: 0
Flags: HW
LayerCount: 2
Fore
SplineSet
369.69140625 334 m 1
 705.69140625 594 l 1
 769.69140625 569 l 5
 431.69140625 317 l 1
 369.69140625 334 l 1
225.69140625 413 m 1
 560.69140625 662 l 1
 631.69140625 637 l 1
 305.69140625 388 l 1
 225.69140625 413 l 1
286.69140625 579 m 0
 327.69140625 581 369.69140625 573 407.69140625 556 c 0
 445.69140625 539 478.69140625 514 504.69140625 482 c 0
 557.69140625 418 580.69140625 332 569.69140625 250 c 0
 561.69140625 187 534.69140625 127 490.69140625 81 c 0
 446.69140625 35 386.69140625 6 323.69140625 0 c 0
 282.69140625 -4 241.69140625 2 203.69140625 18 c 0
 165.69140625 34 131.69140625 58 104.69140625 89 c 0
 50.69140625 150 23.69140625 235 31.69140625 317 c 0
 37.69140625 383 65.69140625 447 111.69140625 495 c 0
 157.69140625 543 220.69140625 575 286.69140625 579 c 0
280.69140625 508 m 0
 237.69140625 502 196.69140625 481 165.69140625 451 c 0
 134.69140625 421 111.69140625 382 102.69140625 339 c 0
 88.69140625 275 103.69140625 206 142.69140625 154 c 0
 162.69140625 128 187.69140625 106 216.69140625 92 c 0
 245.69140625 78 278.69140625 71 311.69140625 72 c 0
 358.69140625 73 404.69140625 92 440.69140625 123 c 0
 476.69140625 154 501.69140625 198 511.69140625 244 c 0
 526.69140625 311 508.69140625 384 464.69140625 436 c 0
 442.69140625 462 413.69140625 483 381.69140625 496 c 0
 349.69140625 509 314.69140625 513 280.69140625 508 c 0
EndSplineSet
Validated: 37
EndChar

StartChar: uniE03C
Encoding: 57404 57404 60
Width: 500
VWidth: 0
Flags: HW
LayerCount: 2
Fore
SplineSet
47.0537109375 161 m 5
 127.053710938 164 l 1
 535.053710938 523 l 1
 468.053710938 517 l 5
 47.0537109375 161 l 5
55.0537109375 308 m 1
 132.053710938 305 l 1
 534.053710938 643 l 1
 450.053710938 646 l 1
 55.0537109375 308 l 1
-17.9462890625 584 m 1
 28.0537109375 571 l 1
 14.0537109375 602 16.0537109375 639 31.0537109375 669 c 0
 46.0537109375 699 75.0537109375 721 108.053710938 728 c 0
 127.053710938 732 148.053710938 732 167.053710938 727 c 0
 186.053710938 722 204.053710938 712 219.053710938 700 c 0
 249.053710938 675 268.053710938 639 277.053710938 601 c 0
 286.053710938 563 285.053710938 522 279.053710938 483 c 0
 273.053710938 444 263.053710938 407 253.053710938 369 c 0
 237.053710938 309 221.053710938 248 216.053710938 186 c 0
 211.053710938 124 214.053710938 61 228.053710938 0 c 1
 274.053710938 0 l 1
 277.053710938 104 292.053710938 207 311.053710938 310 c 0
 330.053710938 412 353.053710938 516 332.053710938 618 c 0
 322.053710938 669 299.053710938 718 263.053710938 755 c 0
 227.053710938 792 176.053710938 815 124.053710938 814 c 0
 97.0537109375 813 70.0537109375 806 46.0537109375 793 c 0
 22.0537109375 780 2.0537109375 761 -11.9462890625 738 c 0
 -25.9462890625 715 -33.9462890625 689 -34.9462890625 662 c 0
 -35.9462890625 635 -29.9462890625 608 -17.9462890625 584 c 1
EndSplineSet
Validated: 37
EndChar

StartChar: uniE03D
Encoding: 57405 57405 61
Width: 400
VWidth: 0
Flags: HW
LayerCount: 2
Fore
SplineSet
45 145 m 5
 456 493 l 5
 340 480 l 5
 -56 152 l 5
 45 145 l 5
45 325 m 1
 456 672 l 1
 340 659 l 1
 -56 331 l 1
 45 325 l 1
147 812 m 25
 144 0 l 25
 261 0 l 25
 209 812 l 25
 147 812 l 25
EndSplineSet
Validated: 5
EndChar

StartChar: uniE03E
Encoding: 57406 57406 62
Width: 500
VWidth: 0
InSpiro: 1
Flags: HW
LayerCount: 2
Fore
SplineSet
18.986328125 308.223632812 m 1
 258.602539062 563.200195312 l 1
 289.322265625 517.120117188 l 1
 52.7783203125 262.143554688 l 1
 18.986328125 308.223632812 l 1
  Spiro
    18.986 308.224 v
    258.602 563.2 v
    289.322 517.12 v
    52.778 262.144 v
    0 0 z
  EndSpiro
74.2822265625 123.904296875 m 1
 40.490234375 163.83984375 l 1
 289.322265625 421.887695312 l 1
 336.426757812 378.879882812 l 1
 74.2822265625 123.904296875 l 1
  Spiro
    74.282 123.904 v
    40.49 163.84 v
    289.322 421.888 v
    336.426 378.88 v
    0 0 z
  EndSpiro
463.40234375 583.6796875 m 1
 417.322265625 571.391601562 l 1
 431.323242188 601.953125 430.422851562 638.913085938 415.041992188 668.803710938 c 0
 399.661132812 698.694335938 370.270507812 720.79296875 337.450195312 728.064453125 c 0
 318.28125 732.310546875 298.106445312 731.725585938 279.11328125 726.748046875 c 0
 260.122070312 721.771484375 242.338867188 712.448242188 227.102539062 700.064453125 c 0
 196.631835938 675.293945312 177.037109375 638.778320312 168.262695312 600.501953125 c 0
 159.48828125 562.225585938 160.838867188 522.2265625 166.755859375 483.407226562 c 0
 172.672851562 444.586914062 182.9765625 406.58984375 193.06640625 368.639648438 c 0
 209.06640625 308.458984375 224.043945312 247.708007812 229.521484375 185.677734375 c 0
 235 123.6484375 231.340820312 60.74609375 217.642578125 0 c 1
 171.5625 0 l 1
 169.057617188 104.249023438 153.859375 207.768554688 134.698242188 310.272460938 c 0
 115.654296875 412.149414062 92.6513671875 516.908203125 113.501953125 618.4296875 c 0
 123.926757812 669.192382812 146.388671875 718.321289062 182.854492188 755.140625 c 0
 219.319335938 791.959960938 270.282226562 815.247070312 322.090820312 814.080078125 c 0
 349.041992188 813.47265625 375.866210938 806.389648438 399.422851562 793.28125 c 0
 422.977539062 780.171875 443.18359375 761.053710938 457.412109375 738.158203125 c 0
 471.639648438 715.260742188 479.840820312 688.64453125 480.896484375 661.708984375 c 0
 481.953125 634.772460938 475.860351562 607.5859375 463.40234375 583.6796875 c 1
  Spiro
    463.402 583.68 v
    417.322 571.392 v
    337.45 728.064 o
    193.066 368.64 o
    217.642 0 v
    171.562 0 v
    134.698 310.272 o
    322.09 814.08 o
    0 0 z
  EndSpiro
EndSplineSet
Validated: 37
EndChar

StartChar: uniE03F
Encoding: 57407 57407 63
Width: 850
VWidth: 0
Flags: HW
LayerCount: 2
Fore
SplineSet
167.5 96 m 29
 204.5 61 l 25
 380.5 342 l 25
 347.5 352 l 25
 167.5 96 l 29
83.5 138 m 1
 118.5 103 l 1
 304.5 378 l 1
 251.5 413 l 1
 83.5 138 l 1
828.5 309 m 1
 755.5 358 l 1
 632.5 129 218.5 219 87.5 342 c 1
 21.5 281 l 1
 173.5 121 717.5 63 828.5 309 c 1
EndSplineSet
Validated: 37
EndChar

StartChar: uniE040
Encoding: 57408 57408 64
Width: 850
VWidth: 0
Flags: HW
LayerCount: 2
Fore
SplineSet
525.5 162 m 5
 554.5 139 l 29
 693.5 352 l 1
 629.5 383 l 25
 525.5 162 l 5
597.5 101 m 1
 623.5 84 l 1
 812.5 251 l 1
 761.5 310 l 1
 597.5 101 l 1
28.5 68 m 1
 127.5 22 l 1
 157.5 83 201.5 135 256.5 175 c 0
 326.5 226 415.5 253 501.5 240 c 0
 553.5 232 603.5 209 642.5 174 c 0
 681.5 139 710.5 94 723.5 43 c 1
 821.5 98 l 1
 766.5 191 675.5 261 572.5 292 c 0
 460.5 325 335.5 311 231.5 258 c 0
 147.5 215 76.5 149 28.5 68 c 1
28.5 95 m 1048
EndSplineSet
Validated: 37
EndChar

StartChar: uniE041
Encoding: 57409 57409 65
Width: 400
VWidth: 0
Flags: HW
LayerCount: 2
Fore
SplineSet
117 378 m 1
 349 568 l 1
 373 485 l 1
 128 341 l 1
 117 378 l 1
85 467 m 5
 58 510 l 1
 269 746 l 1
 318 664 l 1
 85 467 l 5
49 17 m 1
 27 70 l 1
 104 112 162 185 187 269 c 0
 204 327 206 390 196 449 c 0
 186 508 164 565 134 617 c 0
 109 660 79 701 44 737 c 1
 105 803 l 1
 142 745 174 684 201 621 c 0
 225 563 245 502 254 439 c 0
 263 376 262 312 245 251 c 0
 217 150 145 60 49 17 c 1
EndSplineSet
Validated: 37
EndChar

StartChar: uniE042
Encoding: 57410 57410 66
Width: 550
VWidth: 0
Flags: HW
LayerCount: 2
Fore
SplineSet
283.533203125 190 m 1
 507.533203125 399 l 1
 563.533203125 362 l 5
 329.533203125 166 l 1
 283.533203125 190 l 1
208.533203125 261 m 1
 394.533203125 485 l 1
 458.533203125 442 l 1
 254.533203125 230 l 1
 208.533203125 261 l 1
276.533203125 765 m 1
 331.533203125 725 l 1
 233.533203125 637 145.533203125 536 92.533203125 415 c 0
 65.533203125 353 49.533203125 284 61.533203125 218 c 0
 67.533203125 185 79.533203125 153 99.533203125 126 c 0
 119.533203125 99 147.533203125 77 178.533203125 65 c 0
 219.533203125 49 267.533203125 49 307.533203125 69 c 0
 347.533203125 89 378.533203125 126 390.533203125 169 c 0
 399.533203125 203 397.533203125 239 384.533203125 271 c 0
 371.533203125 303 346.533203125 331 316.533203125 349 c 0
 286.533203125 367 251.533203125 374 216.533203125 370 c 0
 181.533203125 366 148.533203125 350 123.533203125 326 c 1
 113.533203125 384 l 1
 151.533203125 407 197.533203125 418 241.533203125 414 c 0
 285.533203125 410 328.533203125 392 361.533203125 363 c 0
 394.533203125 334 419.533203125 293 428.533203125 250 c 0
 437.533203125 207 432.533203125 161 414.533203125 120 c 0
 388.533203125 63 336.533203125 19 276.533203125 4 c 0
 216.533203125 -11 149.533203125 1 98.533203125 37 c 0
 45.533203125 74 8.533203125 134 -5.466796875 197 c 0
 -19.466796875 260 -14.466796875 327 3.533203125 390 c 0
 45.533203125 542 150.533203125 671 276.533203125 765 c 1
EndSplineSet
Validated: 37
EndChar

StartChar: uniE043
Encoding: 57411 57411 67
Width: 600
VWidth: 0
Flags: HW
LayerCount: 2
Fore
SplineSet
306.5 272 m 1
 266.5 371 l 1
 453.5 620 l 1
 515.5 552 l 5
 306.5 272 l 1
287.5 116 m 1
 530.5 414 l 1
 604.5 340 l 1
 370.5 30 l 1
 287.5 116 l 1
-10.5 58 m 1
 257.5 780 l 1
 610.5 31 l 1
 487.5 15 l 1
 260.5 642 l 1
 134.5 0 l 1
 -10.5 58 l 1
EndSplineSet
Validated: 5
EndChar

StartChar: uniE044
Encoding: 57412 57412 68
Width: 600
VWidth: 0
InSpiro: 1
Flags: HW
LayerCount: 2
Fore
SplineSet
204.767578125 403.456054688 m 1
 582.623046875 704.51171875 l 1
 631.775390625 659.456054688 l 1
 253.919921875 348.16015625 l 1
 204.767578125 403.456054688 l 1
  Spiro
    204.768 403.456 v
    582.624 704.512 v
    631.776 659.456 v
    253.92 348.16 v
    0 0 z
  EndSpiro
230.3671875 210.944335938 m 1
 574.431640625 505.856445312 l 1
 635.87109375 464.896484375 l 1
 282.591796875 155.6484375 l 1
 230.3671875 210.944335938 l 1
  Spiro
    230.368 210.944 v
    574.432 505.856 v
    635.872 464.896 v
    282.592 155.648 v
    0 0 z
  EndSpiro
-35.87109375 801.791992188 m 1
 495.583984375 814.080078125 l 1
 484.693359375 621.727539062 464.1796875 429.920898438 434.14453125 239.616210938 c 0
 421.4921875 159.454101562 407.15234375 79.55859375 391.13671875 0 c 1
 323.552734375 18.431640625 l 1
 359.708984375 164.83203125 385.39453125 313.81640625 400.3515625 463.872070312 c 0
 409.408203125 554.729492188 414.53515625 645.979492188 415.712890625 737.280273438 c 1
 -11.296875 712.704101562 l 1
 -35.87109375 801.791992188 l 1
  Spiro
    -35.8716 801.792 v
    495.584 814.08 v
    434.144 239.616 o
    391.136 0 v
    323.552 18.432 v
    400.352 463.872 o
    415.712 737.28 v
    -11.2956 712.704 v
    0 0 z
  EndSpiro
EndSplineSet
Validated: 5
EndChar

StartChar: uniE045
Encoding: 57413 57413 69
Width: 800
VWidth: 0
InSpiro: 1
Flags: HW
LayerCount: 2
Fore
SplineSet
326.750976562 249.856445312 m 1
 286.814453125 292.864257812 l 1
 547.934570312 480.255859375 l 1
 606.302734375 455.6796875 l 1
 326.750976562 249.856445312 l 1
  Spiro
    286.817 292.864 v
    547.937 480.256 v
    606.305 455.68 v
    326.753 249.856 v
    0 0 z
  EndSpiro
296.03125 157.696289062 m 1
 569.438476562 375.807617188 l 1
 618.590820312 345.087890625 l 1
 329.823242188 108.543945312 l 1
 296.03125 157.696289062 l 1
  Spiro
    296.033 157.696 v
    569.441 375.808 v
    618.593 345.088 v
    329.825 108.544 v
    0 0 z
  EndSpiro
83.0390625 648.192382812 m 1
 115.602539062 664.627929688 152.060546875 673.1875 188.537109375 673.30078125 c 0
 225.014648438 673.413085938 261.223632812 665.021484375 295.006835938 651.263671875 c 0
 351.405273438 628.296875 400.536132812 589.93359375 457.064453125 567.290039062 c 0
 485.329101562 555.967773438 515.869140625 548.997070312 546.204101562 551.6171875 c 0
 576.5390625 554.23828125 606.479492188 567.133789062 626.783203125 589.82421875 c 0
 640.815429688 605.506835938 649.965820312 625.620117188 651.926757812 646.573242188 c 0
 653.888671875 667.526367188 648.572265625 689.1171875 636.952148438 706.663085938 c 0
 625.33203125 724.208984375 607.538085938 737.524414062 587.502929688 743.96484375 c 0
 567.46875 750.404296875 545.403320312 749.984375 525.407226562 743.423828125 c 0
 493.310546875 732.89453125 467.569335938 706.958007812 453.111328125 676.428710938 c 0
 438.653320312 645.899414062 434.584960938 611.271484375 436.319335938 577.536132812 c 0
 441.413085938 478.439453125 486.3125 385.447265625 499.27734375 287.0703125 c 0
 512.2421875 188.692382812 495.978515625 85.44921875 445.53515625 0 c 1
 384.094726562 0 l 1
 409.026367188 50.3017578125 424.219726562 105.338867188 429.225585938 161.255859375 c 0
 434.23046875 217.172851562 428.84765625 273.643554688 417.88671875 328.704101562 c 0
 404.380859375 396.549804688 382.357421875 462.70703125 373.201171875 531.275390625 c 0
 368.623046875 565.55859375 367.483398438 600.4921875 372.67578125 634.688476562 c 0
 377.868164062 668.884765625 389.5625 702.3046875 408.670898438 731.135742188 c 0
 426.40625 757.89453125 450.512695312 780.52734375 478.786132812 795.733398438 c 0
 507.05859375 810.939453125 539.418945312 818.633789062 571.487304688 817.15234375 c 0
 602.66015625 815.711914062 633.482421875 805.537109375 658.96875 787.530273438 c 0
 684.455078125 769.522460938 704.416015625 743.66015625 714.80859375 714.235351562 c 0
 725.201171875 684.810546875 725.860351562 652.03515625 716.61328125 622.23046875 c 0
 707.366210938 592.42578125 688.342773438 565.892578125 663.646484375 546.81640625 c 0
 637.680664062 526.758789062 605.836914062 514.982421875 573.3046875 510.716796875 c 0
 540.772460938 506.452148438 507.62109375 509.411132812 475.458984375 515.904296875 c 0
 411.135742188 528.891601562 349.991210938 554.737304688 285.791015625 568.3203125 c 0
 216.883789062 582.8984375 144.286132812 582.649414062 76.89453125 562.17578125 c 1
 83.0390625 648.192382812 l 1
  Spiro
    83.0414 648.192 v
    295.009 651.264 o
    626.785 589.824 o
    525.409 743.424 o
    436.321 577.536 o
    445.537 0 v
    384.097 0 v
    417.889 328.704 o
    408.673 731.136 o
    571.489 817.152 o
    663.649 546.816 o
    285.793 568.32 o
    76.8974 562.176 v
    0 0 z
  EndSpiro
EndSplineSet
Validated: 37
EndChar

StartChar: uniE062
Encoding: 57442 57442 70
Width: 400
VWidth: 0
Flags: HW
LayerCount: 2
Fore
SplineSet
400 358 m 1
 0 674 l 1
 0 524 l 1
 400 220 l 1
 400 358 l 1
  Spiro
    400 358 v
    0 674 v
    0 524 v
    400 220 v
    0 0 z
  EndSpiro
EndSplineSet
EndChar

StartChar: uniE070
Encoding: 57456 57456 71
Width: 400
VWidth: 0
Flags: HW
LayerCount: 2
Fore
SplineSet
48 464 m 1
 400 488 l 1
 348 348 l 1
 0 360 l 1
 48 464 l 1
EndSplineSet
EndChar

StartChar: uniE07E
Encoding: 57470 57470 72
Width: 400
VWidth: 0
Flags: HW
LayerCount: 2
Fore
SplineSet
0 344 m 1
 400 635 l 1
 400 464 l 1
 0 203 l 1
 0 344 l 1
  Spiro
    0 344 v
    400 635 v
    400 464 v
    0 203 v
    0 0 z
  EndSpiro
EndSplineSet
EndChar

StartChar: uniE08C
Encoding: 57484 57484 73
Width: 400
VWidth: 0
Flags: HW
LayerCount: 2
Fore
SplineSet
0 236 m 1
 400 527 l 1
 400 356 l 1
 0 95 l 1
 0 236 l 1
  Spiro
    0 236 v
    400 527 v
    400 356 v
    0 95 v
    0 0 z
  EndSpiro
0 523 m 1
 400 814 l 1
 400 643 l 1
 0 382 l 1
 0 523 l 1
  Spiro
    0 523 v
    400 814 v
    400 643 v
    0 382 v
    0 0 z
  EndSpiro
EndSplineSet
EndChar

StartChar: uniE055
Encoding: 57429 57429 74
Width: 500
VWidth: 0
InSpiro: 1
Flags: HW
LayerCount: 2
Fore
SplineSet
346 764 m 1
 274.977527471 650.595806958 207.756112113 530.188828627 187 398 c 0
 179.505657096 350.271003145 180.005410407 300.406267146 195.952189345 254.800099166 c 0
 211.898968282 209.193931185 244.808672373 168.528156054 289 149 c 0
 316.388637242 136.896956012 347.483195268 133.141442493 376.862682927 138.926494668 c 0
 406.242170586 144.711546843 433.681174589 160.00530842 454 182 c 1
 500 77 l 1
 476.638485894 48.8018980911 446.006912225 26.6861744287 411.905351632 13.3453776863 c 0
 377.803791039 0.00458094391161 340.338462466 -4.51768062419 304 0 c 0
 252.53883102 6.3977700273 203.928223512 31.0168598064 166.510980452 66.9213622523 c 0
 129.093737391 102.825864698 102.746360693 149.440876806 87.5950544129 199.035445985 c 0
 57.292441853 298.224584345 70.0672493772 405.84332054 97 506 c 0
 125.94517141 613.640407601 170.386150955 716.734730524 223 815 c 1
 346 764 l 1
  Spiro
    346 764 v
    187 398 o
    289 149 o
    454 182 v
    500 77 v
    304 0 o
    97 506 o
    223 815 v
    0 0 z
  EndSpiro
EndSplineSet
EndChar

StartChar: uniE063
Encoding: 57443 57443 75
Width: 500
VWidth: 0
InSpiro: 1
Flags: HW
LayerCount: 2
Fore
SplineSet
48 751 m 1
 396 601 l 1
 354 493 l 1
 0 628 l 1
 48 751 l 1
  Spiro
    48 751 v
    396 601 v
    354 493 v
    0 628 v
    0 0 z
  EndSpiro
346 764 m 1
 274.977527471 650.595806958 207.756112113 530.188828627 187 398 c 0
 179.505657096 350.271003145 180.005410407 300.406267146 195.952189345 254.800099166 c 0
 211.898968282 209.193931185 244.808672373 168.528156054 289 149 c 0
 316.388637242 136.896956012 347.483195268 133.141442493 376.862682927 138.926494668 c 0
 406.242170586 144.711546843 433.681174589 160.00530842 454 182 c 1
 500 77 l 1
 476.638485894 48.8018980911 446.006912225 26.6861744287 411.905351632 13.3453776863 c 0
 377.803791039 0.00458094391161 340.338462466 -4.51768062419 304 0 c 0
 252.53883102 6.3977700273 203.928223512 31.0168598064 166.510980452 66.9213622523 c 0
 129.093737391 102.825864698 102.746360693 149.440876806 87.5950544129 199.035445985 c 0
 57.292441853 298.224584345 70.0672493772 405.84332054 97 506 c 0
 125.94517141 613.640407601 170.386150955 716.734730524 223 815 c 1
 346 764 l 1
  Spiro
    346 764 v
    187 398 o
    289 149 o
    454 182 v
    500 77 v
    304 0 o
    97 506 o
    223 815 v
    0 0 z
  EndSpiro
EndSplineSet
EndChar

StartChar: uniE071
Encoding: 57457 57457 76
Width: 500
VWidth: 0
InSpiro: 1
Flags: HW
LayerCount: 2
Fore
SplineSet
0 481 m 1
 345 487 l 1
 345 355 l 1
 0 376 l 1
 0 481 l 1
  Spiro
    0 481 v
    345 487 v
    345 355 v
    0 376 v
    0 0 z
  EndSpiro
346 764 m 1
 274.977527471 650.595806958 207.756112113 530.188828627 187 398 c 0
 179.505657096 350.271003145 180.005410407 300.406267146 195.952189345 254.800099166 c 0
 211.898968282 209.193931185 244.808672373 168.528156054 289 149 c 0
 316.388637242 136.896956012 347.483195268 133.141442493 376.862682927 138.926494668 c 0
 406.242170586 144.711546843 433.681174589 160.00530842 454 182 c 1
 500 77 l 1
 476.638485894 48.8018980911 446.006912225 26.6861744287 411.905351632 13.3453776863 c 0
 377.803791039 0.00458094391161 340.338462466 -4.51768062419 304 0 c 0
 252.53883102 6.3977700273 203.928223512 31.0168598064 166.510980452 66.9213622523 c 0
 129.093737391 102.825864698 102.746360693 149.440876806 87.5950544129 199.035445985 c 0
 57.292441853 298.224584345 70.0672493772 405.84332054 97 506 c 0
 125.94517141 613.640407601 170.386150955 716.734730524 223 815 c 1
 346 764 l 1
  Spiro
    346 764 v
    187 398 o
    289 149 o
    454 182 v
    500 77 v
    304 0 o
    97 506 o
    223 815 v
    0 0 z
  EndSpiro
EndSplineSet
EndChar

StartChar: uniE07F
Encoding: 57471 57471 77
Width: 500
VWidth: 0
InSpiro: 1
Flags: HW
LayerCount: 2
Fore
SplineSet
0 190 m 1
 297 397 l 1
 330 319 l 1
 51 106 l 1
 0 190 l 1
  Spiro
    0 190 v
    297 397 v
    330 319 v
    51 106 v
    0 0 z
  EndSpiro
346 764 m 1
 274.977527471 650.595806958 207.756112113 530.188828627 187 398 c 0
 179.505657096 350.271003145 180.005410407 300.406267146 195.952189345 254.800099166 c 0
 211.898968282 209.193931185 244.808672373 168.528156054 289 149 c 0
 316.388637242 136.896956012 347.483195268 133.141442493 376.862682927 138.926494668 c 0
 406.242170586 144.711546843 433.681174589 160.00530842 454 182 c 1
 500 77 l 1
 476.638485894 48.8018980911 446.006912225 26.6861744287 411.905351632 13.3453776863 c 0
 377.803791039 0.00458094391161 340.338462466 -4.51768062419 304 0 c 0
 252.53883102 6.3977700273 203.928223512 31.0168598064 166.510980452 66.9213622523 c 0
 129.093737391 102.825864698 102.746360693 149.440876806 87.5950544129 199.035445985 c 0
 57.292441853 298.224584345 70.0672493772 405.84332054 97 506 c 0
 125.94517141 613.640407601 170.386150955 716.734730524 223 815 c 1
 346 764 l 1
  Spiro
    346 764 v
    187 398 o
    289 149 o
    454 182 v
    500 77 v
    304 0 o
    97 506 o
    223 815 v
    0 0 z
  EndSpiro
EndSplineSet
EndChar

StartChar: uniE08D
Encoding: 57485 57485 78
Width: 500
VWidth: 0
InSpiro: 1
Flags: HW
LayerCount: 2
Fore
SplineSet
45 70 m 1
 327 295 l 1
 378 235 l 1
 102 -20 l 1
 45 70 l 1
  Spiro
    45 70 v
    327 295 v
    378 235 v
    102 -20 v
    0 0 z
  EndSpiro
-21 247 m 1
 258 463 l 1
 300 376 l 1
 0 151 l 1
 -21 247 l 1
  Spiro
    -21 247 v
    258 463 v
    300 376 v
    0 151 v
    0 0 z
  EndSpiro
346 764 m 1
 274.977527471 650.595806958 207.756112113 530.188828627 187 398 c 0
 179.505657096 350.271003145 180.005410407 300.406267146 195.952189345 254.800099166 c 0
 211.898968282 209.193931185 244.808672373 168.528156054 289 149 c 0
 316.388637242 136.896956012 347.483195268 133.141442493 376.862682927 138.926494668 c 0
 406.242170586 144.711546843 433.681174589 160.00530842 454 182 c 1
 500 77 l 1
 476.638485894 48.8018980911 446.006912225 26.6861744287 411.905351632 13.3453776863 c 0
 377.803791039 0.00458094391161 340.338462466 -4.51768062419 304 0 c 0
 252.53883102 6.3977700273 203.928223512 31.0168598064 166.510980452 66.9213622523 c 0
 129.093737391 102.825864698 102.746360693 149.440876806 87.5950544129 199.035445985 c 0
 57.292441853 298.224584345 70.0672493772 405.84332054 97 506 c 0
 125.94517141 613.640407601 170.386150955 716.734730524 223 815 c 1
 346 764 l 1
  Spiro
    346 764 v
    187 398 o
    289 149 o
    454 182 v
    500 77 v
    304 0 o
    97 506 o
    223 815 v
    0 0 z
  EndSpiro
EndSplineSet
EndChar

StartChar: uniE056
Encoding: 57430 57430 79
Width: 500
VWidth: 0
InSpiro: 1
Flags: HW
LayerCount: 2
Fore
SplineSet
140 815 m 1
 227 767 l 1
 193.208231241 672.045438844 164.176178826 575.135658789 146 476 c 0
 136.649014092 424.998292921 129.970780389 373.164883463 132.348215142 321.367558566 c 0
 133.536932519 295.468896118 137.160598358 269.540358459 145.239287549 244.905250451 c 0
 153.31797674 220.270142442 166.084253359 196.729870125 185 179 c 0
 194.510031654 170.086176543 205.559861204 162.742373104 217.68713887 157.964707659 c 0
 229.814416536 153.187042214 243.000397767 151.04748098 256 152 c 0
 280.527428477 153.797196692 303.380993782 166.871754195 320 185 c 0
 336.00246102 202.455709628 346.906064748 224.105615685 354.352609547 246.585151443 c 0
 361.799154345 269.0646872 365.926456644 292.537517439 368.337307234 316.095283818 c 0
 373.159008413 363.210816575 371.621468551 410.777048009 368 458 c 0
 359.84489659 564.340301278 340.024168998 669.571241835 314 773 c 1
 401 821 l 1
 431.151607952 741.932839943 451.133409523 659.043950728 461 575 c 0
 471.287532616 487.370449919 471.751235103 398.516272327 461.577129804 310.873480517 c 0
 456.490077154 267.052084613 448.550212255 223.42920922 435.143536732 181.400006335 c 0
 421.736861209 139.37080345 402.643757777 98.5518700542 374 65 c 0
 358.71722326 47.098517128 340.658754546 31.4237824435 320.10720333 19.9494590865 c 0
 299.555652114 8.47513572958 276.499260095 1.3457818889 253 0 c 0
 219.620248799 -1.9116288956 185.955991612 8.21243499632 158.192080944 26.8411059012 c 0
 130.428170276 45.4697768061 108.498621846 71.9198075583 92 101 c 0
 57.6934357405 161.46817122 44.295635713 231.638194416 37.7970219737 300.856025222 c 0
 31.2984082344 370.073856027 32.406961009 440.01087214 41 509 c 0
 54.3331752149 616.04526427 87.56665494 720.728018532 140 815 c 1
  Spiro
    140 815 v
    227 767 v
    146 476 o
    185 179 o
    256 152 o
    320 185 o
    368 458 o
    314 773 v
    401 821 v
    461 575 o
    374 65 o
    253 0 o
    92 101 o
    41 509 o
    0 0 z
  EndSpiro
EndSplineSet
EndChar

StartChar: uniE064
Encoding: 57444 57444 80
Width: 500
VWidth: 0
Flags: HW
LayerCount: 2
Fore
SplineSet
233 404 m 5
 536 188 l 5
 469 86 l 5
 167 323 l 5
 233 404 l 5
109 815 m 5
 196 767 l 5
 162.208007812 672.045898438 133.17578125 575.135742188 115 476 c 4
 105.649414062 424.998046875 98.970703125 373.165039062 101.348632812 321.3671875 c 4
 102.537109375 295.46875 106.16015625 269.540039062 114.239257812 244.905273438 c 4
 122.318359375 220.270507812 135.083984375 196.729492188 154 179 c 4
 163.509765625 170.0859375 174.559570312 162.7421875 186.6875 157.96484375 c 4
 198.814453125 153.1875 212 151.047851562 225 152 c 4
 249.52734375 153.796875 272.380859375 166.872070312 289 185 c 4
 305.002929688 202.456054688 315.90625 224.10546875 323.352539062 246.584960938 c 4
 330.798828125 269.064453125 334.926757812 292.537109375 337.336914062 316.095703125 c 4
 342.159179688 363.2109375 340.62109375 410.77734375 337 458 c 4
 328.844726562 564.33984375 309.024414062 669.571289062 283 773 c 5
 370 821 l 5
 400.151367188 741.932617188 420.133789062 659.043945312 430 575 c 4
 440.287109375 487.370117188 440.750976562 398.516601562 430.577148438 310.873046875 c 4
 425.490234375 267.051757812 417.549804688 223.4296875 404.143554688 181.400390625 c 4
 390.737304688 139.37109375 371.643554688 98.5517578125 343 65 c 4
 327.716796875 47.0986328125 309.659179688 31.423828125 289.107421875 19.94921875 c 4
 268.555664062 8.4755859375 245.499023438 1.345703125 222 0 c 4
 188.620117188 -1.912109375 154.956054688 8.212890625 127.192382812 26.8408203125 c 4
 99.427734375 45.4697265625 77.4990234375 71.919921875 61 101 c 4
 26.693359375 161.467773438 13.2958984375 231.638671875 6.796875 300.856445312 c 4
 0.298828125 370.07421875 1.4072265625 440.010742188 10 509 c 4
 23.3330078125 616.044921875 56.56640625 720.727539062 109 815 c 5
  Spiro
    109 815 v
    196 767 v
    115 476 o
    154 179 o
    225 152 o
    289 185 o
    337 458 o
    283 773 v
    370 821 v
    430 575 o
    343 65 o
    222 0 o
    61 101 o
    10 509 o
    0 0 z
  EndSpiro
EndSplineSet
EndChar

StartChar: uniE072
Encoding: 57458 57458 81
Width: 500
VWidth: 0
InSpiro: 1
Flags: HW
LayerCount: 2
Fore
SplineSet
203 581 m 1
 542 593 l 1
 518 482 l 1
 176 482 l 1
 203 581 l 1
  Spiro
    203 581 v
    542 593 v
    518 482 v
    176 482 v
    0 0 z
  EndSpiro
109 815 m 1
 196 767 l 1
 162.208007812 672.045898438 133.17578125 575.135742188 115 476 c 0
 105.649414062 424.998046875 98.970703125 373.165039062 101.348632812 321.3671875 c 0
 102.537109375 295.46875 106.16015625 269.540039062 114.239257812 244.905273438 c 0
 122.318359375 220.270507812 135.083984375 196.729492188 154 179 c 0
 163.509765625 170.0859375 174.559570312 162.7421875 186.6875 157.96484375 c 0
 198.814453125 153.1875 212 151.047851562 225 152 c 0
 249.52734375 153.796875 272.380859375 166.872070312 289 185 c 0
 305.002929688 202.456054688 315.90625 224.10546875 323.352539062 246.584960938 c 0
 330.798828125 269.064453125 334.926757812 292.537109375 337.336914062 316.095703125 c 0
 342.159179688 363.2109375 340.62109375 410.77734375 337 458 c 0
 328.844726562 564.33984375 309.024414062 669.571289062 283 773 c 1
 370 821 l 1
 400.151367188 741.932617188 420.133789062 659.043945312 430 575 c 0
 440.287109375 487.370117188 440.750976562 398.516601562 430.577148438 310.873046875 c 0
 425.490234375 267.051757812 417.549804688 223.4296875 404.143554688 181.400390625 c 0
 390.737304688 139.37109375 371.643554688 98.5517578125 343 65 c 0
 327.716796875 47.0986328125 309.659179688 31.423828125 289.107421875 19.94921875 c 0
 268.555664062 8.4755859375 245.499023438 1.345703125 222 0 c 0
 188.620117188 -1.912109375 154.956054688 8.212890625 127.192382812 26.8408203125 c 0
 99.427734375 45.4697265625 77.4990234375 71.919921875 61 101 c 0
 26.693359375 161.467773438 13.2958984375 231.638671875 6.796875 300.856445312 c 0
 0.298828125 370.07421875 1.4072265625 440.010742188 10 509 c 0
 23.3330078125 616.044921875 56.56640625 720.727539062 109 815 c 1
  Spiro
    109 815 v
    196 767 v
    115 476 o
    154 179 o
    225 152 o
    289 185 o
    337 458 o
    283 773 v
    370 821 v
    430 575 o
    343 65 o
    222 0 o
    61 101 o
    10 509 o
    0 0 z
  EndSpiro
EndSplineSet
EndChar

StartChar: uniE080
Encoding: 57472 57472 82
Width: 500
VWidth: 0
InSpiro: 1
Flags: HW
LayerCount: 2
Fore
SplineSet
167 410 m 1
 469 686 l 1
 532 575 l 1
 221 314 l 1
 167 410 l 1
  Spiro
    167 410 v
    469 686 v
    532 575 v
    221 314 v
    0 0 z
  EndSpiro
109 815 m 1
 196 767 l 1
 162.208007812 672.045898438 133.17578125 575.135742188 115 476 c 0
 105.649414062 424.998046875 98.970703125 373.165039062 101.348632812 321.3671875 c 0
 102.537109375 295.46875 106.16015625 269.540039062 114.239257812 244.905273438 c 0
 122.318359375 220.270507812 135.083984375 196.729492188 154 179 c 0
 163.509765625 170.0859375 174.559570312 162.7421875 186.6875 157.96484375 c 0
 198.814453125 153.1875 212 151.047851562 225 152 c 0
 249.52734375 153.796875 272.380859375 166.872070312 289 185 c 0
 305.002929688 202.456054688 315.90625 224.10546875 323.352539062 246.584960938 c 0
 330.798828125 269.064453125 334.926757812 292.537109375 337.336914062 316.095703125 c 0
 342.159179688 363.2109375 340.62109375 410.77734375 337 458 c 0
 328.844726562 564.33984375 309.024414062 669.571289062 283 773 c 1
 370 821 l 1
 400.151367188 741.932617188 420.133789062 659.043945312 430 575 c 0
 440.287109375 487.370117188 440.750976562 398.516601562 430.577148438 310.873046875 c 0
 425.490234375 267.051757812 417.549804688 223.4296875 404.143554688 181.400390625 c 0
 390.737304688 139.37109375 371.643554688 98.5517578125 343 65 c 0
 327.716796875 47.0986328125 309.659179688 31.423828125 289.107421875 19.94921875 c 0
 268.555664062 8.4755859375 245.499023438 1.345703125 222 0 c 0
 188.620117188 -1.912109375 154.956054688 8.212890625 127.192382812 26.8408203125 c 0
 99.427734375 45.4697265625 77.4990234375 71.919921875 61 101 c 0
 26.693359375 161.467773438 13.2958984375 231.638671875 6.796875 300.856445312 c 0
 0.298828125 370.07421875 1.4072265625 440.010742188 10 509 c 0
 23.3330078125 616.044921875 56.56640625 720.727539062 109 815 c 1
  Spiro
    109 815 v
    196 767 v
    115 476 o
    154 179 o
    225 152 o
    289 185 o
    337 458 o
    283 773 v
    370 821 v
    430 575 o
    343 65 o
    222 0 o
    61 101 o
    10 509 o
    0 0 z
  EndSpiro
EndSplineSet
EndChar

StartChar: uniE08E
Encoding: 57486 57486 83
Width: 500
VWidth: 0
InSpiro: 1
Flags: HW
LayerCount: 2
Fore
SplineSet
245 371 m 1
 551 632 l 1
 602 527 l 1
 308 302 l 1
 245 371 l 1
  Spiro
    245 371 v
    551 632 v
    602 527 v
    308 302 v
    0 0 z
  EndSpiro
197 545 m 1
 482 794 l 1
 536 713 l 1
 227 449 l 1
 197 545 l 1
  Spiro
    197 545 v
    482 794 v
    536 713 v
    227 449 v
    0 0 z
  EndSpiro
140 815 m 1
 227 767 l 1
 193.208231241 672.045438844 164.176178826 575.135658789 146 476 c 0
 136.649014092 424.998292921 129.970780389 373.164883463 132.348215142 321.367558566 c 0
 133.536932519 295.468896118 137.160598358 269.540358459 145.239287549 244.905250451 c 0
 153.31797674 220.270142442 166.084253359 196.729870125 185 179 c 0
 194.510031654 170.086176543 205.559861204 162.742373104 217.68713887 157.964707659 c 0
 229.814416536 153.187042214 243.000397767 151.04748098 256 152 c 0
 280.527428477 153.797196692 303.380993782 166.871754195 320 185 c 0
 336.00246102 202.455709628 346.906064748 224.105615685 354.352609547 246.585151443 c 0
 361.799154345 269.0646872 365.926456644 292.537517439 368.337307234 316.095283818 c 0
 373.159008413 363.210816575 371.621468551 410.777048009 368 458 c 0
 359.84489659 564.340301278 340.024168998 669.571241835 314 773 c 1
 401 821 l 1
 431.151607952 741.932839943 451.133409523 659.043950728 461 575 c 0
 471.287532616 487.370449919 471.751235103 398.516272327 461.577129804 310.873480517 c 0
 456.490077154 267.052084613 448.550212255 223.42920922 435.143536732 181.400006335 c 0
 421.736861209 139.37080345 402.643757777 98.5518700542 374 65 c 0
 358.71722326 47.098517128 340.658754546 31.4237824435 320.10720333 19.9494590865 c 0
 299.555652114 8.47513572958 276.499260095 1.3457818889 253 0 c 0
 219.620248799 -1.9116288956 185.955991612 8.21243499632 158.192080944 26.8411059012 c 0
 130.428170276 45.4697768061 108.498621846 71.9198075583 92 101 c 0
 57.6934357405 161.46817122 44.295635713 231.638194416 37.7970219737 300.856025222 c 0
 31.2984082344 370.073856027 32.406961009 440.01087214 41 509 c 0
 54.3331752149 616.04526427 87.56665494 720.728018532 140 815 c 1
  Spiro
    140 815 v
    227 767 v
    146 476 o
    185 179 o
    256 152 o
    320 185 o
    368 458 o
    314 773 v
    401 821 v
    461 575 o
    374 65 o
    253 0 o
    92 101 o
    41 509 o
    0 0 z
  EndSpiro
EndSplineSet
EndChar

StartChar: uniE057
Encoding: 57431 57431 84
Width: 500
VWidth: 0
InSpiro: 1
Flags: HW
LayerCount: 2
Fore
SplineSet
107 6 m 1
 54.56640625 100.272460938 21.3330078125 204.955078125 8 312 c 0
 -0.5927734375 380.989257812 -1.701171875 450.92578125 4.796875 520.143554688 c 0
 11.2958984375 589.361328125 24.693359375 659.532226562 59 720 c 0
 75.4990234375 749.080078125 97.427734375 775.530273438 125.192382812 794.159179688 c 0
 152.956054688 812.787109375 186.620117188 822.912109375 220 821 c 0
 243.499023438 819.654296875 266.555664062 812.524414062 287.107421875 801.05078125 c 0
 307.659179688 789.576171875 325.716796875 773.901367188 341 756 c 0
 369.643554688 722.448242188 388.737304688 681.62890625 402.143554688 639.599609375 c 0
 415.549804688 597.5703125 423.490234375 553.948242188 428.577148438 510.126953125 c 0
 438.750976562 422.483398438 438.287109375 333.629882812 428 246 c 0
 418.133789062 161.956054688 398.151367188 79.0673828125 368 0 c 1
 281 48 l 1
 307.024414062 151.428710938 326.844726562 256.66015625 335 363 c 0
 338.62109375 410.22265625 340.159179688 457.7890625 335.336914062 504.904296875 c 0
 332.926757812 528.462890625 328.798828125 551.935546875 321.352539062 574.415039062 c 0
 313.90625 596.89453125 303.002929688 618.543945312 287 636 c 0
 270.380859375 654.127929688 247.52734375 667.203125 223 669 c 0
 210 669.952148438 196.814453125 667.8125 184.6875 663.03515625 c 0
 172.559570312 658.2578125 161.509765625 650.9140625 152 642 c 0
 133.083984375 624.270507812 120.318359375 600.729492188 112.239257812 576.094726562 c 0
 104.16015625 551.459960938 100.537109375 525.53125 99.3486328125 499.6328125 c 0
 96.970703125 447.834960938 103.649414062 396.001953125 113 345 c 0
 131.17578125 245.864257812 160.208007812 148.954101562 194 54 c 1
 107 6 l 1
  Spiro
    8 312 o
    59 720 o
    220 821 o
    341 756 o
    428 246 o
    368 0 v
    281 48 v
    335 363 o
    287 636 o
    223 669 o
    152 642 o
    113 345 o
    194 54 v
    107 6 v
    0 0 z
  EndSpiro
EndSplineSet
EndChar

StartChar: uniE065
Encoding: 57445 57445 85
Width: 500
VWidth: 0
InSpiro: 1
Flags: HW
LayerCount: 2
Fore
SplineSet
212 383 m 1
 518 176 l 1
 458 71 l 1
 173 281 l 1
 212 383 l 1
  Spiro
    212 383 v
    518 176 v
    458 71 v
    173 281 v
    0 0 z
  EndSpiro
107 6 m 1
 54.56640625 100.272460938 21.3330078125 204.955078125 8 312 c 0
 -0.5927734375 380.989257812 -1.701171875 450.92578125 4.796875 520.143554688 c 0
 11.2958984375 589.361328125 24.693359375 659.532226562 59 720 c 0
 75.4990234375 749.080078125 97.427734375 775.530273438 125.192382812 794.159179688 c 0
 152.956054688 812.787109375 186.620117188 822.912109375 220 821 c 0
 243.499023438 819.654296875 266.555664062 812.524414062 287.107421875 801.05078125 c 0
 307.659179688 789.576171875 325.716796875 773.901367188 341 756 c 0
 369.643554688 722.448242188 388.737304688 681.62890625 402.143554688 639.599609375 c 0
 415.549804688 597.5703125 423.490234375 553.948242188 428.577148438 510.126953125 c 0
 438.750976562 422.483398438 438.287109375 333.629882812 428 246 c 0
 418.133789062 161.956054688 398.151367188 79.0673828125 368 0 c 1
 281 48 l 1
 307.024414062 151.428710938 326.844726562 256.66015625 335 363 c 0
 338.62109375 410.22265625 340.159179688 457.7890625 335.336914062 504.904296875 c 0
 332.926757812 528.462890625 328.798828125 551.935546875 321.352539062 574.415039062 c 0
 313.90625 596.89453125 303.002929688 618.543945312 287 636 c 0
 270.380859375 654.127929688 247.52734375 667.203125 223 669 c 0
 210 669.952148438 196.814453125 667.8125 184.6875 663.03515625 c 0
 172.559570312 658.2578125 161.509765625 650.9140625 152 642 c 0
 133.083984375 624.270507812 120.318359375 600.729492188 112.239257812 576.094726562 c 0
 104.16015625 551.459960938 100.537109375 525.53125 99.3486328125 499.6328125 c 0
 96.970703125 447.834960938 103.649414062 396.001953125 113 345 c 0
 131.17578125 245.864257812 160.208007812 148.954101562 194 54 c 1
 107 6 l 1
  Spiro
    8 312 o
    59 720 o
    220 821 o
    341 756 o
    428 246 o
    368 0 v
    281 48 v
    335 363 o
    287 636 o
    223 669 o
    152 642 o
    113 345 o
    194 54 v
    107 6 v
    0 0 z
  EndSpiro
EndSplineSet
EndChar

StartChar: uniE073
Encoding: 57459 57459 86
Width: 500
VWidth: 0
InSpiro: 1
Flags: HW
LayerCount: 2
Fore
SplineSet
230 443 m 1
 536 446 l 1
 500 341 l 1
 185 350 l 1
 230 443 l 1
  Spiro
    230 443 v
    536 446 v
    500 341 v
    185 350 v
    0 0 z
  EndSpiro
107 6 m 1
 54.56640625 100.272460938 21.3330078125 204.955078125 8 312 c 0
 -0.5927734375 380.989257812 -1.701171875 450.92578125 4.796875 520.143554688 c 0
 11.2958984375 589.361328125 24.693359375 659.532226562 59 720 c 0
 75.4990234375 749.080078125 97.427734375 775.530273438 125.192382812 794.159179688 c 0
 152.956054688 812.787109375 186.620117188 822.912109375 220 821 c 0
 243.499023438 819.654296875 266.555664062 812.524414062 287.107421875 801.05078125 c 0
 307.659179688 789.576171875 325.716796875 773.901367188 341 756 c 0
 369.643554688 722.448242188 388.737304688 681.62890625 402.143554688 639.599609375 c 0
 415.549804688 597.5703125 423.490234375 553.948242188 428.577148438 510.126953125 c 0
 438.750976562 422.483398438 438.287109375 333.629882812 428 246 c 0
 418.133789062 161.956054688 398.151367188 79.0673828125 368 0 c 1
 281 48 l 1
 307.024414062 151.428710938 326.844726562 256.66015625 335 363 c 0
 338.62109375 410.22265625 340.159179688 457.7890625 335.336914062 504.904296875 c 0
 332.926757812 528.462890625 328.798828125 551.935546875 321.352539062 574.415039062 c 0
 313.90625 596.89453125 303.002929688 618.543945312 287 636 c 0
 270.380859375 654.127929688 247.52734375 667.203125 223 669 c 0
 210 669.952148438 196.814453125 667.8125 184.6875 663.03515625 c 0
 172.559570312 658.2578125 161.509765625 650.9140625 152 642 c 0
 133.083984375 624.270507812 120.318359375 600.729492188 112.239257812 576.094726562 c 0
 104.16015625 551.459960938 100.537109375 525.53125 99.3486328125 499.6328125 c 0
 96.970703125 447.834960938 103.649414062 396.001953125 113 345 c 0
 131.17578125 245.864257812 160.208007812 148.954101562 194 54 c 1
 107 6 l 1
  Spiro
    8 312 o
    59 720 o
    220 821 o
    341 756 o
    428 246 o
    368 0 v
    281 48 v
    335 363 o
    287 636 o
    223 669 o
    152 642 o
    113 345 o
    194 54 v
    107 6 v
    0 0 z
  EndSpiro
EndSplineSet
EndChar

StartChar: uniE081
Encoding: 57473 57473 87
Width: 500
VWidth: 0
InSpiro: 1
Flags: HW
LayerCount: 2
Fore
SplineSet
233 551 m 1
 479 710 l 1
 515 602 l 1
 269 446 l 1
 233 551 l 1
  Spiro
    233 551 v
    479 710 v
    515 602 v
    269 446 v
    0 0 z
  EndSpiro
107 6 m 1
 54.56640625 100.272460938 21.3330078125 204.955078125 8 312 c 0
 -0.5927734375 380.989257812 -1.701171875 450.92578125 4.796875 520.143554688 c 0
 11.2958984375 589.361328125 24.693359375 659.532226562 59 720 c 0
 75.4990234375 749.080078125 97.427734375 775.530273438 125.192382812 794.159179688 c 0
 152.956054688 812.787109375 186.620117188 822.912109375 220 821 c 0
 243.499023438 819.654296875 266.555664062 812.524414062 287.107421875 801.05078125 c 0
 307.659179688 789.576171875 325.716796875 773.901367188 341 756 c 0
 369.643554688 722.448242188 388.737304688 681.62890625 402.143554688 639.599609375 c 0
 415.549804688 597.5703125 423.490234375 553.948242188 428.577148438 510.126953125 c 0
 438.750976562 422.483398438 438.287109375 333.629882812 428 246 c 0
 418.133789062 161.956054688 398.151367188 79.0673828125 368 0 c 1
 281 48 l 1
 307.024414062 151.428710938 326.844726562 256.66015625 335 363 c 0
 338.62109375 410.22265625 340.159179688 457.7890625 335.336914062 504.904296875 c 0
 332.926757812 528.462890625 328.798828125 551.935546875 321.352539062 574.415039062 c 0
 313.90625 596.89453125 303.002929688 618.543945312 287 636 c 0
 270.380859375 654.127929688 247.52734375 667.203125 223 669 c 0
 210 669.952148438 196.814453125 667.8125 184.6875 663.03515625 c 0
 172.559570312 658.2578125 161.509765625 650.9140625 152 642 c 0
 133.083984375 624.270507812 120.318359375 600.729492188 112.239257812 576.094726562 c 0
 104.16015625 551.459960938 100.537109375 525.53125 99.3486328125 499.6328125 c 0
 96.970703125 447.834960938 103.649414062 396.001953125 113 345 c 0
 131.17578125 245.864257812 160.208007812 148.954101562 194 54 c 1
 107 6 l 1
  Spiro
    8 312 o
    59 720 o
    220 821 o
    341 756 o
    428 246 o
    368 0 v
    281 48 v
    335 363 o
    287 636 o
    223 669 o
    152 642 o
    113 345 o
    194 54 v
    107 6 v
    0 0 z
  EndSpiro
EndSplineSet
EndChar

StartChar: uniE08F
Encoding: 57487 57487 88
Width: 500
VWidth: 0
InSpiro: 1
Flags: HW
LayerCount: 2
Fore
SplineSet
243 410 m 1
 524 524 l 1
 551 419 l 1
 264 353 l 1
 243 410 l 1
  Spiro
    243 410 v
    524 524 v
    551 419 v
    264 353 v
    0 0 z
  EndSpiro
225 551 m 1
 470 755 l 1
 515 644 l 1
 255 485 l 1
 225 551 l 1
  Spiro
    225 551 v
    470 755 v
    515 644 v
    255 485 v
    0 0 z
  EndSpiro
107 6 m 1
 54.56640625 100.272460938 21.3330078125 204.955078125 8 312 c 0
 -0.5927734375 380.989257812 -1.701171875 450.92578125 4.796875 520.143554688 c 0
 11.2958984375 589.361328125 24.693359375 659.532226562 59 720 c 0
 75.4990234375 749.080078125 97.427734375 775.530273438 125.192382812 794.159179688 c 0
 152.956054688 812.787109375 186.620117188 822.912109375 220 821 c 0
 243.499023438 819.654296875 266.555664062 812.524414062 287.107421875 801.05078125 c 0
 307.659179688 789.576171875 325.716796875 773.901367188 341 756 c 0
 369.643554688 722.448242188 388.737304688 681.62890625 402.143554688 639.599609375 c 0
 415.549804688 597.5703125 423.490234375 553.948242188 428.577148438 510.126953125 c 0
 438.750976562 422.483398438 438.287109375 333.629882812 428 246 c 0
 418.133789062 161.956054688 398.151367188 79.0673828125 368 0 c 1
 281 48 l 1
 307.024414062 151.428710938 326.844726562 256.66015625 335 363 c 0
 338.62109375 410.22265625 340.159179688 457.7890625 335.336914062 504.904296875 c 0
 332.926757812 528.462890625 328.798828125 551.935546875 321.352539062 574.415039062 c 0
 313.90625 596.89453125 303.002929688 618.543945312 287 636 c 0
 270.380859375 654.127929688 247.52734375 667.203125 223 669 c 0
 210 669.952148438 196.814453125 667.8125 184.6875 663.03515625 c 0
 172.559570312 658.2578125 161.509765625 650.9140625 152 642 c 0
 133.083984375 624.270507812 120.318359375 600.729492188 112.239257812 576.094726562 c 0
 104.16015625 551.459960938 100.537109375 525.53125 99.3486328125 499.6328125 c 0
 96.970703125 447.834960938 103.649414062 396.001953125 113 345 c 0
 131.17578125 245.864257812 160.208007812 148.954101562 194 54 c 1
 107 6 l 1
  Spiro
    8 312 o
    59 720 o
    220 821 o
    341 756 o
    428 246 o
    368 0 v
    281 48 v
    335 363 o
    287 636 o
    223 669 o
    152 642 o
    113 345 o
    194 54 v
    107 6 v
    0 0 z
  EndSpiro
EndSplineSet
EndChar

StartChar: uniE058
Encoding: 57432 57432 89
Width: 600
VWidth: 0
InSpiro: 1
Flags: HW
LayerCount: 2
Fore
SplineSet
600 477 m 1
 531 487 l 1
 537.091705221 518.477348506 534.833382032 551.584785597 524.173254023 581.822080653 c 0
 513.513126013 612.059375709 494.316606278 639.686928835 468 658 c 0
 449.554786544 670.835564856 427.470694902 678.786703922 405 679 c 0
 386.272803276 679.177762086 367.552864023 673.925768705 351.564231408 664.173685667 c 0
 335.575598792 654.421602628 322.407071234 640.345680052 312.798031683 624.270672886 c 0
 293.579952582 592.120658552 288.608015524 553.451145551 288 516 c 0
 287.024614047 455.920413471 293.362396845 395.977295192 297 336 c 0
 308.031719454 154.107510349 319.415687551 -27.8287237678 339 -209 c 1
 258 -206 l 1
 -66 130 l 1
 0 205 l 1
 228 -23 l 1
 221.764794601 80.7732941953 210.541589696 184.167224553 199.377595203 287.526498939 c 0
 188.213600711 390.885773324 174.978144196 496.620670105 198 598 c 0
 209.10183857 646.888194089 230.161134561 694.501487357 264.953590072 730.595688836 c 0
 299.746045583 766.689890314 348.870186523 789.555105102 399 789 c 0
 425.787724028 788.703370086 452.432262329 781.999736761 476.369581283 769.97164842 c 0
 500.306900238 757.943560078 521.499731776 740.697877601 538.871752511 720.304666881 c 0
 573.61579398 679.518245439 592.91969348 627.108849086 600 574 c 0
 604.285004889 541.858499159 604.206612096 509.151854657 600 477 c 1
  Spiro
    600 477 v
    531 487 v
    468 658 o
    405 679 o
    288 516 o
    297 336 o
    339 -209 v
    258 -206 v
    -66 130 v
    0 205 v
    228 -23 v
    198 598 o
    399 789 o
    600 574 o
    0 0 z
  EndSpiro
EndSplineSet
EndChar

StartChar: uniE066
Encoding: 57446 57446 90
Width: 600
VWidth: 0
Flags: HW
LayerCount: 2
Fore
SplineSet
92 504 m 1
 467 210 l 1
 443 108 l 1
 47 390 l 1
 92 504 l 1
  Spiro
    92 504 v
    467 210 v
    443 108 v
    47 390 v
    0 0 z
  EndSpiro
600 477 m 1
 531 487 l 1
 537.091705221 518.477348506 534.833382032 551.584785597 524.173254023 581.822080653 c 0
 513.513126013 612.059375709 494.316606278 639.686928835 468 658 c 0
 449.554786544 670.835564856 427.470694902 678.786703922 405 679 c 0
 386.272803276 679.177762086 367.552864023 673.925768705 351.564231408 664.173685667 c 0
 335.575598792 654.421602628 322.407071234 640.345680052 312.798031683 624.270672886 c 0
 293.579952582 592.120658552 288.608015524 553.451145551 288 516 c 0
 287.024614047 455.920413471 293.362396845 395.977295192 297 336 c 0
 308.031719454 154.107510349 319.415687551 -27.8287237678 339 -209 c 1
 258 -206 l 1
 -66 130 l 1
 0 205 l 1
 228 -23 l 1
 221.764794601 80.7732941953 210.541589696 184.167224553 199.377595203 287.526498939 c 0
 188.213600711 390.885773324 174.978144196 496.620670105 198 598 c 0
 209.10183857 646.888194089 230.161134561 694.501487357 264.953590072 730.595688836 c 0
 299.746045583 766.689890314 348.870186523 789.555105102 399 789 c 0
 425.787724028 788.703370086 452.432262329 781.999736761 476.369581283 769.97164842 c 0
 500.306900238 757.943560078 521.499731776 740.697877601 538.871752511 720.304666881 c 0
 573.61579398 679.518245439 592.91969348 627.108849086 600 574 c 0
 604.285004889 541.858499159 604.206612096 509.151854657 600 477 c 1
  Spiro
    600 477 v
    531 487 v
    468 658 o
    405 679 o
    288 516 o
    297 336 o
    339 -209 v
    258 -206 v
    -66 130 v
    0 205 v
    228 -23 v
    198 598 o
    399 789 o
    600 574 o
    0 0 z
  EndSpiro
EndSplineSet
EndChar

StartChar: uniE074
Encoding: 57460 57460 91
Width: 600
VWidth: 0
InSpiro: 1
Flags: HW
LayerCount: 2
Fore
SplineSet
600 477 m 1
 531 487 l 1
 537.091705221 518.477348506 534.833382032 551.584785597 524.173254023 581.822080653 c 0
 513.513126013 612.059375709 494.316606278 639.686928835 468 658 c 0
 449.554786544 670.835564856 427.470694902 678.786703922 405 679 c 0
 386.272803276 679.177762086 367.552864023 673.925768705 351.564231408 664.173685667 c 0
 335.575598792 654.421602628 322.407071234 640.345680052 312.798031683 624.270672886 c 0
 293.579952582 592.120658552 288.608015524 553.451145551 288 516 c 0
 287.024614047 455.920413471 293.362396845 395.977295192 297 336 c 0
 308.031719454 154.107510349 319.415687551 -27.8287237678 339 -209 c 1
 258 -206 l 1
 -77 90 l 1
 -91 207 l 1
 527 240 l 1
 554 129 l 1
 43 108 l 1
 228 -23 l 1
 221.764794601 80.7732941953 210.541589696 184.167224553 199.377595203 287.526498939 c 0
 188.213600711 390.885773324 174.978144196 496.620670105 198 598 c 0
 209.10183857 646.888194089 230.161134561 694.501487357 264.953590072 730.595688836 c 0
 299.746045583 766.689890314 348.870186523 789.555105102 399 789 c 0
 425.787724028 788.703370086 452.432262329 781.999736761 476.369581283 769.97164842 c 0
 500.306900238 757.943560078 521.499731776 740.697877601 538.871752511 720.304666881 c 0
 573.61579398 679.518245439 592.91969348 627.108849086 600 574 c 0
 604.285004889 541.858499159 604.206612096 509.151854657 600 477 c 1
  Spiro
    600 477 v
    531 487 v
    468 658 o
    405 679 o
    288 516 o
    297 336 o
    339 -209 v
    258 -206 v
    -77 90 v
    -91 207 v
    527 240 v
    554 129 v
    43 108 v
    228 -23 v
    198 598 o
    399 789 o
    600 574 o
    0 0 z
  EndSpiro
EndSplineSet
EndChar

StartChar: uniE082
Encoding: 57474 57474 92
Width: 600
VWidth: 0
InSpiro: 1
Flags: HW
LayerCount: 2
Fore
SplineSet
600 477 m 1
 531 487 l 1
 537.091705221 518.477348506 534.833382032 551.584785597 524.173254023 581.822080653 c 0
 513.513126013 612.059375709 494.316606278 639.686928835 468 658 c 0
 449.554786544 670.835564856 427.470694902 678.786703922 405 679 c 0
 386.272803276 679.177762086 367.552864023 673.925768705 351.564231408 664.173685667 c 0
 335.575598792 654.421602628 322.407071234 640.345680052 312.798031683 624.270672886 c 0
 293.579952582 592.120658552 288.608015524 553.451145551 288 516 c 0
 287.024614047 455.920413471 293.362396845 395.977295192 297 336 c 0
 308.031719454 154.107510349 319.415687551 -27.8287237678 339 -209 c 1
 258 -206 l 1
 -38 96 l 1
 406 366 l 1
 460 264 l 1
 112 96 l 1
 228 -23 l 1
 221.764794601 80.7732941953 210.541589696 184.167224553 199.377595203 287.526498939 c 0
 188.213600711 390.885773324 174.978144196 496.620670105 198 598 c 0
 209.10183857 646.888194089 230.161134561 694.501487357 264.953590072 730.595688836 c 0
 299.746045583 766.689890314 348.870186523 789.555105102 399 789 c 0
 425.787724028 788.703370086 452.432262329 781.999736761 476.369581283 769.97164842 c 0
 500.306900238 757.943560078 521.499731776 740.697877601 538.871752511 720.304666881 c 0
 573.61579398 679.518245439 592.91969348 627.108849086 600 574 c 0
 604.285004889 541.858499159 604.206612096 509.151854657 600 477 c 1
  Spiro
    600 477 v
    531 487 v
    468 658 o
    405 679 o
    288 516 o
    297 336 o
    339 -209 v
    258 -206 v
    -38 96 v
    406 366 v
    460 264 v
    112 96 v
    228 -23 v
    198 598 o
    399 789 o
    600 574 o
    0 0 z
  EndSpiro
EndSplineSet
EndChar

StartChar: uniE090
Encoding: 57488 57488 93
Width: 600
VWidth: 0
Flags: HWO
LayerCount: 2
Fore
SplineSet
0 321 m 1
 358 588 l 1
 391 447 l 1
 31 237 l 1
 0 321 l 1
600 477 m 1
 531 487 l 1
 537.091705221 518.477348506 534.833382032 551.584785597 524.173254023 581.822080653 c 0
 513.513126013 612.059375709 494.316606278 639.686928835 468 658 c 0
 449.554786544 670.835564856 427.470694902 678.786703922 405 679 c 0
 386.272803276 679.177762086 367.552864023 673.925768705 351.564231408 664.173685667 c 0
 335.575598792 654.421602628 322.407071234 640.345680052 312.798031683 624.270672886 c 0
 293.579952582 592.120658552 288.608015524 553.451145551 288 516 c 0
 287.024614047 455.920413471 293.362396845 395.977295192 297 336 c 0
 308.031719454 154.107510349 319.415687551 -27.8287237678 339 -209 c 1
 258 -206 l 1
 -38 96 l 1
 406 366 l 1
 460 264 l 1
 112 96 l 1
 228 -23 l 1
 221.764794601 80.7732941953 210.541589696 184.167224553 199.377595203 287.526498939 c 0
 188.213600711 390.885773324 174.978144196 496.620670105 198 598 c 0
 209.10183857 646.888194089 230.161134561 694.501487357 264.953590072 730.595688836 c 0
 299.746045583 766.689890314 348.870186523 789.555105102 399 789 c 0
 425.787724028 788.703370086 452.432262329 781.999736761 476.369581283 769.97164842 c 0
 500.306900238 757.943560078 521.499731776 740.697877601 538.871752511 720.304666881 c 0
 573.61579398 679.518245439 592.91969348 627.108849086 600 574 c 0
 604.285004889 541.858499159 604.206612096 509.151854657 600 477 c 1
  Spiro
    600 477 v
    531 487 v
    468 658 o
    405 679 o
    288 516 o
    297 336 o
    339 -209 v
    258 -206 v
    -38 96 v
    406 366 v
    460 264 v
    112 96 v
    228 -23 v
    198 598 o
    399 789 o
    600 574 o
    0 0 z
  EndSpiro
EndSplineSet
EndChar
